<?xml version="1.0" encoding="UTF-8"?>
<svg width="120px" height="16px" viewBox="0 0 120 16" version="1.1" xmlns="http://www.w3.org/2000/svg" xmlns:xlink="http://www.w3.org/1999/xlink">
    <!-- Generator: Sketch 59.1 (86144) - https://sketch.com -->
    <title>ic-logoAlgolia-referral</title>
    <desc>Created with Sketch.</desc>
    <g id="Design" stroke="none" stroke-width="1" fill="none" fill-rule="evenodd">
        <g id="1.-Algolia-resources-💻" transform="translate(-1352.000000, -593.000000)">
            <g id="Sub-Navigation" transform="translate(106.000000, 561.000000)">
                <g id="SearchBar" transform="translate(741.000000, 0.000000)">
                    <g id="ic-logoAlgolia-referral" transform="translate(505.000000, 32.000000)">
                        <path d="M4.20226931,10.434038 C3.70527961,10.8119759 3.02130369,10.9981103 2.14542086,10.9981103 C1.27249045,10.9981103 0.557022114,10.8686666 0,10.6078895 L0,9.45990315 C0.352321408,9.61863706 0.728262128,9.74335656 1.12191733,9.8350065 C1.51950909,9.92665643 1.88954498,9.97200898 2.23104087,9.97200898 C2.73098298,9.97200898 3.10003473,9.88130389 3.33819613,9.69800402 C3.57438926,9.51564899 3.69445409,9.26998937 3.69445409,8.96291485 C3.69445409,8.68513051 3.58619891,8.44986418 3.365752,8.25711586 C3.14727336,8.06436754 2.69653815,7.83571513 2.01256223,7.57210346 C1.30791942,7.2980985 0.811913859,6.98629975 0.522577284,6.63292784 C0.232256571,6.28144561 0.087588283,5.85815519 0.087588283,5.36494626 C0.087588283,4.74512814 0.31689244,4.25947797 0.776484891,3.90327152 C1.23312493,3.54706508 1.84919532,3.36943427 2.61977538,3.36943427 C3.36083131,3.36943427 4.0959824,3.5243888 4.83014936,3.83618755 L4.42862105,4.8244951 C3.74169272,4.5476556 3.12955887,4.40876343 2.58828297,4.40876343 C2.18084983,4.40876343 1.86986222,4.49379946 1.65925669,4.6638715 C1.44766701,4.83583323 1.34138011,5.06070627 1.34138011,5.34226999 C1.34138011,5.53501831 1.38468218,5.70131097 1.46931805,5.83736861 C1.55395392,5.97437109 1.69370152,6.10381481 1.8875767,6.22475493 C2.08145189,6.34758474 2.42885261,6.50820834 2.93371541,6.70662572 C3.50156304,6.93338845 3.91785342,7.1459785 4.18160241,7.34156136 C4.4453514,7.53808905 4.63922658,7.75918271 4.76224383,8.00673202 C4.88624522,8.25239164 4.94726178,8.54529349 4.94726178,8.87976851 C4.94726178,9.5411598 4.699259,10.0589347 4.20226931,10.434038 Z M6.73150399,10.2327861 C6.21975223,9.72445967 5.96387635,9.02338491 5.96387635,8.13050667 C5.96387635,7.21400732 6.20006947,6.49309082 6.67639227,5.96870202 C7.15271506,5.44431322 7.8061827,5.18164639 8.63777932,5.18164639 C9.41032766,5.18164639 10.0195091,5.40651943 10.468276,5.85721035 C10.9150747,6.30695642 11.1374899,6.92488485 11.1374899,7.71383016 L11.1374899,8.35821424 L7.24325576,8.35821424 C7.25998611,8.90338963 7.41351164,9.32195583 7.70284821,9.61485768 C7.99120065,9.90775954 8.39863378,10.0532656 8.92317934,10.0532656 C9.26762765,10.0532656 9.59042492,10.0220857 9.8876346,9.95878115 C10.1858284,9.89736625 10.5056733,9.79343333 10.8481533,9.6469824 L10.8481533,10.6173379 C10.5430705,10.7552852 10.2379877,10.8535491 9.92700012,10.9102398 C9.61699664,10.9688201 9.26270696,10.9971655 8.86413106,10.9971655 C7.95577168,10.9981103 7.2442399,10.7430022 6.73150399,10.2327861 Z M7.68808614,6.44584859 C7.44992474,6.68583914 7.30820887,7.03543168 7.26195438,7.4946262 L9.91519046,7.4946262 C9.90830149,7.0316523 9.79217321,6.68205976 9.5668056,6.44301405 C9.34045386,6.20396835 9.03045039,6.08397307 8.63482691,6.08397307 C8.24215584,6.08491792 7.92624754,6.20491319 7.68808614,6.44584859 Z M15.9568137,10.1146805 L15.9144958,10.1146805 C15.6320482,10.4567143 15.3486164,10.6891461 15.0632164,10.8119759 C14.7778164,10.9366954 14.4107329,10.9981103 13.9639342,10.9981103 C13.3891976,10.9981103 12.9404307,10.8497697 12.6186176,10.5521436 C12.2968044,10.2545175 12.13639,9.83406165 12.13639,9.28794142 C12.13639,8.70969647 12.3597893,8.27317822 12.8056038,7.97933152 C13.2543707,7.68453998 13.9373625,7.52391638 14.8526109,7.49746073 L15.8623365,7.46628086 L15.8623365,7.16582024 C15.8623365,6.80677926 15.773764,6.53938821 15.6005557,6.36270226 C15.4263633,6.18318176 15.1557254,6.09531121 14.7886419,6.09531121 C14.4894639,6.09531121 14.2020956,6.13688437 13.9275211,6.22097555 C13.6519625,6.30601157 13.3882135,6.40522027 13.1343059,6.52049132 L12.7327776,5.66824141 C13.04967,5.50761781 13.3970707,5.38762253 13.7739956,5.30542105 C14.1509205,5.22227471 14.5071784,5.18070155 14.8417853,5.18070155 C15.5848095,5.18070155 16.1457682,5.33660092 16.5246613,5.64745482 C16.9035545,5.95925357 17.092509,6.44773828 17.092509,7.11479863 L17.092509,10.8941774 L16.2048165,10.8941774 L15.9568137,10.1146805 Z M15.4421095,9.72162513 C15.7137316,9.47974489 15.8505268,9.14054565 15.8505268,8.7040274 L15.8505268,8.21648754 L15.0996295,8.24672257 C14.5150515,8.26750915 14.0899039,8.36010393 13.8232025,8.52828629 C13.5574852,8.69646864 13.4246266,8.9534664 13.4246266,9.29738987 C13.4246266,9.54777371 13.5013894,9.74146687 13.6568832,9.87846935 C13.812377,10.0154718 14.0446336,10.0844455 14.3556212,10.0844455 C14.8073405,10.0835006 15.1685192,9.96350537 15.4421095,9.72162513 Z M22.4127591,5.23266801 L22.2897418,6.34380536 C22.112597,6.30317704 21.9305314,6.2833353 21.7386245,6.2833353 C21.2436031,6.2833353 20.8401065,6.43828983 20.5320713,6.75008858 C20.2250203,7.06188733 20.0695265,7.46533601 20.0695265,7.96326916 L20.0695265,10.8960671 L18.8295126,10.8960671 L18.8295126,5.28368962 L19.8008568,5.28368962 L19.9652078,6.27294201 L20.0281927,6.27294201 C20.2220678,5.93752214 20.4749913,5.67202079 20.7859789,5.47643794 C21.0989348,5.27991024 21.43551,5.18164639 21.7937363,5.18164639 C22.0427232,5.18164639 22.2493922,5.1986536 22.4127591,5.23266801 Z M23.8348385,10.2545175 C23.3762302,9.75941892 23.1459419,9.04795087 23.1459419,8.12105823 C23.1459419,7.17621353 23.3870557,6.45151766 23.867315,5.94413606 C24.3495427,5.43675446 25.04336,5.18259124 25.9536876,5.18259124 C26.569758,5.18259124 27.1248119,5.29313807 27.6168809,5.51328688 L27.2429084,6.4713594 C26.7173787,6.27577654 26.284358,6.17845754 25.941878,6.17845754 C24.9311682,6.17845754 24.4263054,6.82095193 24.4263054,8.11066493 C24.4263054,8.74087634 24.551291,9.21424353 24.8032303,9.52982166 C25.0561538,9.84634463 25.4252055,10.0050785 25.9113697,10.0050785 C26.4644553,10.0050785 26.9880167,9.87280028 27.4810698,9.60824377 L27.4810698,10.6494626 C27.2606229,10.7741821 27.0234456,10.8639424 26.7724904,10.9177985 C26.519567,10.9744892 26.2135001,11 25.8542897,11 C24.9665972,10.9971655 24.2954151,10.7496162 23.8348385,10.2545175 Z M32.7511289,10.8960671 L32.7511289,7.44549427 C32.7511289,7.01086571 32.6605882,6.68961852 32.4795068,6.47608362 C32.2974412,6.26254872 32.0100729,6.15483642 31.6154336,6.15483642 C31.0938405,6.15483642 30.7100266,6.30601157 30.4639921,6.60552734 C30.22091,6.90409826 30.0978928,7.40486595 30.0978928,8.1078304 L30.0978928,10.8960671 L28.8559106,10.8960671 L28.8559106,3 L30.0978928,3 L30.0978928,5.00307075 C30.0978928,5.32431794 30.07821,5.66918625 30.034908,6.03295146 L30.113639,6.03295146 C30.2829107,5.76367072 30.5171356,5.5539152 30.8192659,5.40462974 C31.1204122,5.25628912 31.4727336,5.18164639 31.8742619,5.18164639 C33.2914206,5.18164639 34,5.86665879 34,7.2366836 L34,10.8960671 L32.7511289,10.8960671 Z" id="Shape" fill="#848AB8" fill-rule="nonzero"></path>
                        <path d="M45.418587,5.41678029 L46.6421879,8.78347423 C46.8275513,9.2634306 46.9511269,9.71338969 47.0129147,10.1373511 L47.05647,10.1373511 C47.0898962,9.94136897 47.1496581,9.70239069 47.2367688,9.42141623 C47.3238795,9.14144169 47.7837427,7.80556313 48.6183844,5.4177802 L50,5.4177802 L47.4271968,12.1471684 C46.9592302,13.3820562 46.1792859,14 45.0873639,14 C44.8037478,14 44.5302608,13.9700027 44.2608255,13.9080084 L44.2608255,12.9100991 C44.4532793,12.9530952 44.6720689,12.9750932 44.9192201,12.9750932 C45.537098,12.9750932 45.9685996,12.6221253 46.2187896,11.9171893 L46.4416308,11.3572403 L44.0268422,5.4177802 L45.418587,5.41678029 Z M39.2782983,3 L39.2782983,4.98681938 C39.2782983,5.13380602 39.2712079,5.3517862 39.2560142,5.64175984 C39.2418334,5.93173348 39.2306913,6.11671666 39.2236009,6.19470957 L39.2782983,6.19470957 C39.6834642,5.6047632 40.2831096,5.30879011 41.0731831,5.30879011 C41.8237528,5.30879011 42.4092175,5.57876557 42.8275513,6.11471684 C43.245885,6.65166803 43.4555584,7.40459958 43.4555584,8.37451141 C43.4555584,9.34942278 43.2428463,10.1073539 42.819448,10.6503045 C42.3940238,11.1922552 41.8065333,11.4632306 41.050899,11.4632306 C40.291213,11.4632306 39.6986579,11.1932552 39.2782983,10.6533042 L39.1911876,10.6533042 L38.9582173,11.3562403 L38,11.3562403 L38,3 L39.2782983,3 Z M40.74196,6.33869648 C40.2243606,6.33869648 39.8546467,6.48868285 39.6267409,6.78865558 C39.4018739,7.08862831 39.2843758,7.58858286 39.2772854,8.28851923 L39.2772854,8.37551132 C39.2772854,9.09744569 39.3937706,9.62139805 39.625728,9.9453686 C39.8586984,10.2693392 40.2365156,10.4313244 40.7622183,10.4313244 C41.2160041,10.4313244 41.5593821,10.2543405 41.7933654,9.89937278 C42.0263358,9.54540496 42.1448468,9.0334515 42.1448468,8.36351241 C42.1448468,7.01363512 41.6789061,6.33869648 40.74196,6.33869648 Z" id="Combined-Shape" fill="#848AB8"></path>
                        <g id="Group-7" transform="translate(58.000000, 0.000000)" fill="#5468FF" fill-rule="nonzero">
                            <path d="M12.3063951,0 C13.3331054,0 14.1714286,0.83692734 14.1714286,1.87180344 L14.1714286,12.3504188 C14.1714286,13.3813359 13.3370302,14.2222222 12.3056102,14.2222222 L1.86660336,14.2222222 C0.838323126,14.2222222 0,13.3852949 0,12.3504188 L0,1.86705267 C0,0.837719135 0.834398392,0 1.86581842,0 L12.3063951,0 Z M7.24898321,3.59316582 C5.03935812,3.59316582 3.2457548,5.39212411 3.2457548,7.61390095 C3.2457548,9.83567779 5.03935812,11.6298853 7.24898321,11.6298853 C9.4586083,11.6298853 11.2522116,9.83092702 11.2522116,7.60915018 C11.2522116,5.38816514 9.46253304,3.59316582 7.24898321,3.59316582 Z M7.24898321,4.78402554 C8.80553261,4.78402554 10.0692969,6.05248116 10.0692969,7.61390095 C10.0692969,9.17532074 8.80945734,10.4437764 7.24898321,10.4437764 C5.69243381,10.4437764 4.42866955,9.17532074 4.42866955,7.61390095 C4.42866955,6.05248116 5.69243381,4.78402554 7.24898321,4.78402554 Z M7.3361123,5.28048102 C7.29294023,5.28048102 7.24976816,5.31532 7.24976816,5.3628277 L7.24898321,7.47137785 C7.24898321,7.53155427 7.31334884,7.5743112 7.36908006,7.54501478 L9.23568343,6.57506588 C9.27807055,6.55368741 9.2906297,6.50142894 9.26943614,6.45867201 C8.88324234,5.77772829 8.16580101,5.31056923 7.3361123,5.28048102 Z M3.52127111,3.56782838 L3.22927092,3.86079254 C2.98829227,4.10229002 2.98829227,4.49026958 3.22927092,4.73176706 L3.46946462,4.97405634 C3.50871196,5.01364609 3.56365823,5.00414455 3.59898084,4.96613839 C3.74027125,4.77056502 3.89569071,4.58607678 4.06759404,4.41188187 C4.24342211,4.23610338 4.42395987,4.08091155 4.62176645,3.93838845 C4.66493852,3.91225921 4.66886325,3.851291 4.63511054,3.81328484 L4.38942221,3.56782838 C4.1492285,3.3255391 3.76146481,3.3255391 3.52127111,3.56782838 Z M7.94523097,2.06975219 L6.51348811,2.06975219 C6.17439111,2.06975219 5.8988748,2.34688045 5.8988748,2.68735231 L5.8988748,3.18776677 C5.8988748,3.24319242 5.95068129,3.28278217 6.00641251,3.26932165 C6.40673535,3.15371958 6.82746681,3.09354316 7.25290794,3.09354316 C7.66108025,3.09354316 8.06611277,3.14896881 8.45701625,3.25744473 C8.50882274,3.27011345 8.56062922,3.23131549 8.56062922,3.17588984 L8.55984428,2.68735231 C8.55984428,2.34688045 8.28511292,2.06975219 7.94523097,2.06975219 Z" id="Combined-Shape"></path>
                            <path d="M37.0175429,11.7102222 C37.0175429,13.0035556 36.6880571,13.9475556 36.0228857,14.5484444 C35.3586,15.1484444 34.3435714,15.4488889 32.9760286,15.4488889 C32.4756,15.4488889 31.4375429,15.3511111 30.6076286,15.168 L30.9132,13.6657778 C31.6084857,13.8124444 32.5252,13.8506667 33.0052571,13.8506667 C33.7669714,13.8506667 34.3108,13.696 34.6349714,13.3857778 C34.9609143,13.0746667 35.1203429,12.616 35.1203429,12.0053333 L35.1203429,11.696 C34.9316857,11.7875556 34.6836857,11.88 34.3781143,11.9768889 C34.0725429,12.0684444 33.7182571,12.1173333 33.3205714,12.1173333 C32.798,12.1173333 32.3214857,12.0346667 31.8892571,11.8702222 C31.4579143,11.7057778 31.0832571,11.4631111 30.7785714,11.144 C30.473,10.824 30.2294286,10.4222222 30.0611429,9.94222222 C29.8910857,9.46222222 29.8042857,8.60622222 29.8042857,7.976 C29.8042857,7.38666667 29.8955143,6.64533333 30.0753143,6.152 C30.2595429,5.65777778 30.5217143,5.23111111 30.876,4.87822222 C31.2249714,4.52444444 31.6518857,4.25333333 32.1514286,4.05422222 C32.6509714,3.856 33.2382,3.72977778 33.8741429,3.72977778 C34.4897143,3.72977778 35.0574571,3.808 35.6101429,3.89866667 C36.1637143,3.992 36.6340286,4.08888889 37.0184286,4.19466667 L37.0184286,11.7111111 L37.0175429,11.7102222 Z M31.744,7.97155556 C31.744,8.76622222 31.9184857,9.64711111 32.2683429,10.016 C32.6173143,10.3831111 33.0681429,10.5671111 33.6217143,10.5671111 C33.9228571,10.5671111 34.2089429,10.5226667 34.4755429,10.4426667 C34.7412571,10.3591111 34.9556,10.2622222 35.1256571,10.1457778 L35.1256571,5.44355556 C34.9901429,5.41422222 34.4224,5.29866667 33.8741429,5.28355556 C33.1850571,5.26577778 32.6607143,5.54577778 32.2922571,5.99466667 C31.9291143,6.44622222 31.7431143,7.23555556 31.7431143,7.97155556 L31.744,7.97155556 Z M46.0217143,7.97155556 C46.0217143,8.61155556 45.9296,9.09511111 45.7409429,9.62311111 C45.5522857,10.1511111 45.2856857,10.6008889 44.9411429,10.9742222 C44.5957143,11.3475556 44.1838571,11.6373333 43.6993714,11.8408889 C43.214,12.0435556 42.4664571,12.1608889 42.0935714,12.1608889 C41.7198,12.1546667 40.9775714,12.048 40.4975143,11.8408889 C40.0165714,11.632 39.6047143,11.3457778 39.2601714,10.9733333 C38.9147429,10.6 38.6490286,10.1502222 38.4541714,9.62222222 C38.2593143,9.09422222 38.1636571,8.60888889 38.1636571,7.97066667 C38.1636571,7.33066667 38.2504571,6.71733333 38.4453143,6.19288889 C38.6401714,5.67022222 38.9103143,5.224 39.2601714,4.85066667 C39.6091429,4.47911111 40.0263143,4.19288889 40.5019429,3.99022222 C40.982,3.78577778 41.5116571,3.68977778 42.0838286,3.68977778 C42.6568857,3.68977778 43.1856571,3.79111111 43.6710286,3.99022222 C44.1564,4.19288889 44.5744571,4.47911111 44.9128,4.85244444 C45.2582286,5.22577778 45.5239429,5.67022222 45.7188,6.19466667 C45.9225143,6.71644444 46.0234857,7.33244444 46.0234857,7.97066667 L46.0217143,7.97155556 Z M44.082,7.976 C44.082,7.15822222 43.9022,6.47644444 43.5523429,6.00266667 C43.2033714,5.52266667 42.7135714,5.28444444 42.0873714,5.28444444 C41.4620571,5.28444444 40.9713714,5.52177778 40.6224,6.00177778 C40.2734286,6.48 40.1033714,7.15733333 40.1033714,7.97511111 C40.1033714,8.80444444 40.2778571,9.36177778 40.6259429,9.84177778 C40.9766857,10.3253333 41.4673714,10.5617778 42.0926857,10.5617778 C42.718,10.5617778 43.2086857,10.32 43.5576571,9.84177778 C43.9066286,9.35644444 44.0802286,8.80444444 44.0802286,7.97511111 L44.082,7.976 Z M50.2465714,12.1627193 C47.1377143,12.176 47.1377143,9.65333333 47.1377143,9.25066667 L47.1332857,0.300444444 L49.0287143,0 L49.0287143,8.89066667 C49.0287143,9.11911111 49.0287143,10.5617778 50.2474571,10.5671111 L50.2474571,12.1608889 L50.2465714,12.1627193 Z M53.5901429,12.1626667 L51.6840857,12.1626667 L51.6840857,3.984 L53.5910286,3.68355556 L53.5910286,12.1591111 L53.5901429,12.1626667 Z M52.6335714,2.79111111 C53.2712857,2.79111111 53.7894286,2.27733333 53.7894286,1.64266667 C53.7894286,1.00888889 53.2757143,0.496 52.6344571,0.496 C51.9940857,0.496 51.4803714,1.00888889 51.4803714,1.64266667 C51.4803714,2.27733333 52.0002857,2.79111111 52.6353429,2.79111111 L52.6335714,2.79111111 Z M58.3304857,3.69155556 C58.9558,3.69155556 59.4854571,3.76888889 59.9123714,3.92266667 C60.3401714,4.07911111 60.6829429,4.296 60.9362571,4.57155556 C61.1886857,4.84888889 61.3684857,5.22666667 61.4747714,5.624 C61.5863714,6.02044444 61.6404,6.45688889 61.6404,6.936 L61.6404,11.8071111 C61.3498857,11.8711111 60.9079143,11.944 60.3162571,12.0311111 C59.7246,12.1182222 59.0603143,12.1617778 58.3234,12.1617778 C57.8327143,12.1617778 57.381,12.112 56.9788857,12.0195556 C56.5714571,11.928 56.2260286,11.7777778 55.9355143,11.5697778 C55.6485429,11.3617778 55.4253429,11.0951111 55.2606,10.7662222 C55.1011714,10.4373333 55.0179143,9.97155556 55.0179143,9.48622222 C55.0179143,9.02222222 55.1100286,8.72711111 55.2889429,8.40711111 C55.4749429,8.08711111 55.7211714,7.82666667 56.0329429,7.62311111 C56.3473714,7.41866667 56.7060857,7.27466667 57.1179429,7.18755556 C57.5306857,7.09866667 57.9629143,7.056 58.4093143,7.056 C58.6174571,7.056 58.8362286,7.07111111 59.0682857,7.09511111 C59.3012286,7.11911111 59.5439143,7.16266667 59.8060857,7.22577778 L59.8060857,6.91466667 C59.8060857,6.69777778 59.7821714,6.48977778 59.7281429,6.296 C59.675,6.09866667 59.5828857,5.92888889 59.4571143,5.77866667 C59.3260286,5.62755556 59.1559714,5.512 58.9434,5.43022222 C58.7290571,5.34755556 58.4562571,5.28444444 58.1320857,5.28444444 C57.6954286,5.28444444 57.2977429,5.33777778 56.9337143,5.4 C56.5705714,5.464 56.2694286,5.53688889 56.0409143,5.61866667 L55.8124,4.06311111 C56.0497714,3.98311111 56.4040571,3.89955556 56.8602,3.81777778 C57.3163429,3.73511111 57.8061429,3.69155556 58.3304857,3.69155556 L58.3304857,3.69155556 Z M58.4899143,10.5626667 C59.0727143,10.5626667 59.5040571,10.5297778 59.8052,10.4711111 L59.8052,8.544 C59.6989143,8.51377778 59.5483429,8.48 59.3490571,8.45066667 C59.1506571,8.42222222 58.9327714,8.40266667 58.6892,8.40266667 C58.4810571,8.40266667 58.2676,8.41777778 58.0541429,8.45155556 C57.8415714,8.48088889 57.6467143,8.53866667 57.4766571,8.62044444 C57.3083714,8.704 57.1666571,8.81955556 57.0648,8.96977778 C56.9585143,9.12088889 56.9098,9.20711111 56.9098,9.43466667 C56.9098,9.88177778 57.0648,10.1368889 57.3464571,10.3075556 C57.6325429,10.4817778 58.0107429,10.5653333 58.4916857,10.5653333 L58.4899143,10.5626667 Z M21.0286286,3.73955556 C21.6548286,3.73955556 22.1836,3.81777778 22.6105143,3.97244444 C23.0374286,4.12711111 23.3810857,4.34577778 23.6344,4.62133333 C23.8912571,4.90222222 24.0657429,5.27466667 24.1729143,5.672 C24.2845143,6.06933333 24.3376571,6.50488889 24.3376571,6.98488889 L24.3376571,11.856 C24.0453714,11.9182222 23.6051714,11.992 23.0135143,12.0782222 C22.4200857,12.1671111 21.7558,12.2097778 21.018,12.2097778 C20.5282,12.2097778 20.0773714,12.1617778 19.6743714,12.0693333 C19.2669429,11.9777778 18.9215143,11.8275556 18.631,11.6195556 C18.3449143,11.4097778 18.1217143,11.144 17.9578571,10.8142222 C17.7966571,10.4853333 17.7142857,10.0204444 17.7142857,9.536 C17.7142857,9.07111111 17.8064,8.77511111 17.9862,8.456 C18.1704286,8.136 18.4175429,7.87555556 18.7284286,7.672 C19.0437429,7.46755556 19.4015714,7.32355556 19.8152,7.23644444 C20.2261714,7.14933333 20.6584,7.10577778 21.1048,7.10577778 C21.3129429,7.10577778 21.5317143,7.12088889 21.7646571,7.14488889 C21.9931714,7.16977778 22.2411714,7.21333333 22.5024571,7.27644444 L22.5024571,6.96533333 C22.5024571,6.74844444 22.4785429,6.53866667 22.4254,6.34577778 C22.3722571,6.14755556 22.2792571,5.97777778 22.1534857,5.82844444 C22.0206286,5.67733333 21.8523429,5.56177778 21.638,5.47911111 C21.4254286,5.39733333 21.1535143,5.33422222 20.8284571,5.33422222 C20.3918,5.33422222 19.9941143,5.38755556 19.6300857,5.44977778 C19.2669429,5.512 18.9658,5.58577778 18.7381714,5.66844444 L18.5096571,4.11288889 C18.7488,4.03111111 19.1030857,3.94933333 19.5583429,3.86666667 C20.0127143,3.77955556 20.5034,3.74044444 21.0268571,3.74044444 L21.0286286,3.73955556 Z M21.1933714,10.6168889 C21.7761714,10.6168889 22.2075143,10.584 22.5086571,10.5253333 L22.5086571,8.59733333 C22.4006,8.56711111 22.2518,8.53333333 22.0516286,8.504 C21.8523429,8.47555556 21.6353429,8.456 21.3917714,8.456 C21.1827429,8.456 20.9692857,8.47111111 20.7540571,8.50488889 C20.5414857,8.53422222 20.3466286,8.592 20.1783429,8.67377778 C20.0082857,8.75733333 19.8683429,8.87288889 19.7656,9.02311111 C19.6593143,9.17422222 19.6106,9.26044444 19.6106,9.488 C19.6106,9.93511111 19.7647143,10.1902222 20.0463714,10.3608889 C20.3271429,10.5297778 20.7106571,10.6186667 21.1907143,10.6186667 L21.1933714,10.6168889 Z M28.8831429,12.1636082 C25.7742857,12.1768889 25.7742857,9.65422222 25.7742857,9.25155556 L25.7672,0.300444444 L27.6626286,0 L27.6626286,8.89066667 C27.6626286,9.11911111 27.6626286,10.5617778 28.8813714,10.5671111 L28.8813714,12.1608889 L28.8831429,12.1636082 Z" id="Shape"></path>
                        </g>
                    </g>
                </g>
            </g>
        </g>
    </g>
</svg>
