<svg width="2480" height="465" fill="none" xmlns="http://www.w3.org/2000/svg"><path fill="#fff" d="M0 0h2480v465H0z"/><path d="M2391.85 243.545h-9.53v47.973l-18.18-18.186-6.52 6.584 29.47 29.468 29.53-29.468-6.65-6.584-18.12 18.186v-47.973zM56.456 309h11.857v-27.805h27.198v-9.94H68.313v-17.77h30.075v-9.94H56.456V309zm52.223 0h11.57v-49.091h-11.57V309zm5.817-56.058c3.675 0 6.679-2.813 6.679-6.264 0-3.484-3.004-6.297-6.679-6.297-3.708 0-6.712 2.813-6.712 6.297 0 3.451 3.004 6.264 6.712 6.264zM132.146 309h11.569v-28.86c0-6.232 4.699-10.643 11.059-10.643 1.949 0 4.378.352 5.369.671v-10.642c-1.055-.192-2.876-.32-4.155-.32-5.625 0-10.323 3.196-12.113 8.885h-.511v-8.182h-11.218V309zm74.483-36.115c-1.598-8.31-8.246-13.615-19.751-13.615-11.826 0-19.88 5.817-19.848 14.893-.032 7.159 4.379 11.89 13.807 13.839l8.374 1.758c4.506.991 6.616 2.812 6.616 5.593 0 3.356-3.644 5.881-9.141 5.881-5.305 0-8.757-2.301-9.748-6.712l-11.282 1.087c1.438 9.012 9.013 14.35 21.062 14.35 12.273 0 20.934-6.36 20.966-15.661-.032-6.999-4.539-11.282-13.807-13.295l-8.374-1.79c-4.985-1.119-6.967-2.844-6.935-5.689-.032-3.324 3.643-5.625 8.469-5.625 5.338 0 8.15 2.909 9.045 6.137l10.547-1.151zm35.108-12.976h-9.684v-11.761h-11.569v11.761h-6.967v8.949h6.967v27.294c-.064 9.236 6.648 13.775 15.341 13.519 3.292-.096 5.561-.735 6.807-1.15l-1.949-9.045c-.639.16-1.95.447-3.388.447-2.908 0-5.242-1.022-5.242-5.689v-25.376h9.684v-8.949zm53.414 50.05c12.337 0 20.199-7.319 21.03-17.738h-11.058c-.991 5.273-4.795 8.31-9.876 8.31-7.223 0-11.889-6.041-11.889-16.076 0-9.908 4.762-15.853 11.889-15.853 5.561 0 8.981 3.58 9.876 8.31h11.058c-.799-10.643-9.109-17.642-21.094-17.642-14.382 0-23.459 10.387-23.459 25.376 0 14.862 8.853 25.313 23.523 25.313zm30.53-.959h11.57v-28.86c0-6.232 4.698-10.643 11.058-10.643 1.949 0 4.378.352 5.369.671v-10.642c-1.055-.192-2.876-.32-4.155-.32-5.625 0-10.323 3.196-12.113 8.885h-.511v-8.182h-11.218V309zm55.395.959c11.442 0 19.304-5.593 21.349-14.127l-10.802-1.214c-1.566 4.155-5.401 6.328-10.387 6.328-7.479 0-12.433-4.922-12.529-13.327h34.198v-3.548c0-17.227-10.355-24.801-22.436-24.801-14.063 0-23.235 10.323-23.235 25.472 0 15.405 9.044 25.217 23.842 25.217zm-12.337-30.139c.352-6.264 4.986-11.537 11.89-11.537 6.647 0 11.122 4.858 11.186 11.537h-23.076zm58.08 30.171c7.702 0 12.305-3.612 14.414-7.735h.384V309h11.122v-32.855c0-12.976-10.579-16.875-19.943-16.875-10.324 0-18.25 4.602-20.806 13.551l10.802 1.534c1.151-3.356 4.411-6.232 10.068-6.232 5.369 0 8.309 2.748 8.309 7.574v.192c0 3.324-3.483 3.484-12.145 4.411-9.524 1.022-18.632 3.867-18.632 14.925 0 9.652 7.063 14.766 16.427 14.766zm3.004-8.502c-4.826 0-8.277-2.205-8.277-6.456 0-4.442 3.867-6.296 9.044-7.031 3.037-.415 9.109-1.182 10.611-2.397v5.785c0 5.465-4.41 10.099-11.378 10.099zm59.063-41.58h-9.684v-11.761h-11.57v11.761h-6.967v8.949h6.967v27.294c-.064 9.236 6.648 13.775 15.341 13.519 3.292-.096 5.561-.735 6.808-1.15l-1.95-9.045c-.639.16-1.949.447-3.388.447-2.908 0-5.241-1.022-5.241-5.689v-25.376h9.684v-8.949zm30.881 50.05c11.442 0 19.304-5.593 21.35-14.127l-10.803-1.214c-1.566 4.155-5.401 6.328-10.387 6.328-7.478 0-12.432-4.922-12.528-13.327h34.197v-3.548c0-17.227-10.355-24.801-22.436-24.801-14.062 0-23.235 10.323-23.235 25.472 0 15.405 9.045 25.217 23.842 25.217zm-12.336-30.139c.351-6.264 4.986-11.537 11.889-11.537 6.648 0 11.122 4.858 11.186 11.537h-23.075zm80.404 30.171c7.702 0 12.304-3.612 14.414-7.735h.383V309h11.122v-32.855c0-12.976-10.578-16.875-19.943-16.875-10.323 0-18.249 4.602-20.806 13.551l10.803 1.534c1.15-3.356 4.41-6.232 10.067-6.232 5.369 0 8.31 2.748 8.31 7.574v.192c0 3.324-3.484 3.484-12.145 4.411-9.524 1.022-18.633 3.867-18.633 14.925 0 9.652 7.063 14.766 16.428 14.766zm3.004-8.502c-4.826 0-8.278-2.205-8.278-6.456 0-4.442 3.867-6.296 9.045-7.031 3.036-.415 9.109-1.182 10.611-2.397v5.785c0 5.465-4.411 10.099-11.378 10.099zm56.873 25.92h11.57v-26.143h.479c1.822 3.579 5.625 8.597 14.063 8.597 11.569 0 20.231-9.173 20.231-25.345 0-16.363-8.917-25.248-20.263-25.248-8.661 0-12.273 5.209-14.031 8.757h-.671v-8.118h-11.378v67.5zm11.346-42.954c0-9.525 4.091-15.693 11.538-15.693 7.702 0 11.665 6.552 11.665 15.693 0 9.204-4.027 15.916-11.665 15.916-7.383 0-11.538-6.392-11.538-15.916zM703.962 309h11.57v-28.86c0-6.232 4.698-10.643 11.058-10.643 1.95 0 4.379.352 5.369.671v-10.642c-1.054-.192-2.876-.32-4.154-.32-5.625 0-10.324 3.196-12.113 8.885h-.512v-8.182h-11.218V309zm35.684 0h11.569v-49.091h-11.569V309zm5.817-56.058c3.675 0 6.679-2.813 6.679-6.264 0-3.484-3.004-6.297-6.679-6.297-3.708 0-6.712 2.813-6.712 6.297 0 3.451 3.004 6.264 6.712 6.264zM763.113 309h11.569v-29.851c0-6.04 4.027-10.131 9.013-10.131 4.89 0 8.246 3.292 8.246 8.341V309h11.346v-30.618c0-5.529 3.291-9.364 8.885-9.364 4.666 0 8.373 2.748 8.373 8.821V309h11.602v-32.951c0-10.962-6.328-16.779-15.341-16.779-7.127 0-12.561 3.516-14.734 8.981h-.511c-1.886-5.561-6.648-8.981-13.264-8.981-6.584 0-11.505 3.388-13.551 8.981h-.575v-8.342h-11.058V309zm80.771 0h11.57v-49.091h-11.57V309zm5.817-56.058c3.675 0 6.68-2.813 6.68-6.264 0-3.484-3.005-6.297-6.68-6.297-3.708 0-6.712 2.813-6.712 6.297 0 3.451 3.004 6.264 6.712 6.264zm42.163 6.967h-9.684v-11.761h-11.569v11.761h-6.968v8.949h6.968v27.294c-.064 9.236 6.648 13.775 15.341 13.519 3.292-.096 5.561-.735 6.807-1.15l-1.949-9.045c-.64.16-1.95.447-3.388.447-2.909 0-5.242-1.022-5.242-5.689v-25.376h9.684v-8.949zM901.54 309h11.57v-49.091h-11.57V309zm5.817-56.058c3.675 0 6.68-2.813 6.68-6.264 0-3.484-3.005-6.297-6.68-6.297-3.707 0-6.712 2.813-6.712 6.297 0 3.451 3.005 6.264 6.712 6.264zm61.5 6.967h-12.305l-11.314 36.467h-.511l-11.282-36.467h-12.337L938.59 309h12.784l17.483-49.091zm28.069 50.05c11.444 0 19.304-5.593 21.354-14.127l-10.81-1.214c-1.56 4.155-5.4 6.328-10.385 6.328-7.478 0-12.432-4.922-12.528-13.327h34.193v-3.548c0-17.227-10.35-24.801-22.432-24.801-14.062 0-23.235 10.323-23.235 25.472 0 15.405 9.045 25.217 23.843 25.217zm-12.337-30.139c.352-6.264 4.986-11.537 11.889-11.537 6.652 0 11.122 4.858 11.182 11.537h-23.071zm80.401 30.171c7.71 0 12.31-3.612 14.42-7.735h.38V309h11.12v-32.855c0-12.976-10.58-16.875-19.94-16.875-10.32 0-18.25 4.602-20.81 13.551l10.81 1.534c1.15-3.356 4.41-6.232 10.06-6.232 5.37 0 8.31 2.748 8.31 7.574v.192c0 3.324-3.48 3.484-12.14 4.411-9.53 1.022-18.63 3.867-18.63 14.925 0 9.652 7.06 14.766 16.42 14.766zm3.01-8.502c-4.83 0-8.28-2.205-8.28-6.456 0-4.442 3.87-6.296 9.04-7.031 3.04-.415 9.11-1.182 10.62-2.397v5.785c0 5.465-4.42 10.099-11.38 10.099zm59.06-41.58h-9.68v-11.761h-11.57v11.761h-6.97v8.949h6.97v27.294c-.07 9.236 6.64 13.775 15.34 13.519 3.29-.096 5.56-.735 6.8-1.15l-1.95-9.045c-.63.16-1.94.447-3.38.447-2.91 0-5.24-1.022-5.24-5.689v-25.376h9.68v-8.949zm30.56 50.05c14.38 0 23.52-10.132 23.52-25.313 0-15.213-9.14-25.376-23.52-25.376-14.38 0-23.52 10.163-23.52 25.376 0 15.181 9.14 25.313 23.52 25.313zm.07-9.269c-7.96 0-11.86-7.095-11.86-16.076 0-8.98 3.9-16.172 11.86-16.172 7.83 0 11.72 7.192 11.72 16.172 0 8.981-3.89 16.076-11.72 16.076zm33.27 8.31h11.57v-29.851c0-6.04 4.03-10.131 9.02-10.131 4.89 0 8.24 3.292 8.24 8.341V309h11.35v-30.618c0-5.529 3.29-9.364 8.88-9.364 4.67 0 8.38 2.748 8.38 8.821V309h11.6v-32.951c0-10.962-6.33-16.779-15.34-16.779-7.13 0-12.56 3.516-14.74 8.981h-.51c-1.88-5.561-6.65-8.981-13.26-8.981-6.59 0-11.51 3.388-13.55 8.981h-.58v-8.342h-11.06V309z" fill="#CCC"/><path d="M66.158 183.604c8.398 0 13.316-6.854 13.316-18.768 0-11.825-4.989-18.697-13.316-18.697-8.346 0-13.317 6.854-13.335 18.697 0 11.896 4.919 18.75 13.335 18.768zm0-4.741c-4.919 0-7.884-4.936-7.884-14.027.018-9.055 2.983-14.045 7.884-14.045 4.882 0 7.865 4.99 7.865 14.045 0 9.091-2.965 14.027-7.865 14.027zm33.411-32.227h-5.344l-9.073 5.931v5.255l8.7-5.681h.213V183h5.504v-36.364z" fill="#000"/></svg>