<svg width="2480" height="465" fill="none" xmlns="http://www.w3.org/2000/svg"><path fill="#fff" d="M0 0h2480v465H0z"/><path d="M2391.85 243.545h-9.53v47.973l-18.18-18.186-6.52 6.584 29.47 29.468 29.53-29.468-6.65-6.584-18.12 18.186v-47.973zM112.482 265.63c-2.013-14.542-13.2-22.979-27.71-22.979-17.098 0-29.978 12.464-29.978 33.622 0 21.125 12.72 33.622 29.979 33.622 15.564 0 25.888-10.068 27.709-22.564l-11.953-.064c-1.502 7.671-7.766 11.985-15.596 11.985-10.611 0-18.218-7.958-18.218-22.979 0-14.766 7.543-22.98 18.25-22.98 7.958 0 14.19 4.507 15.564 12.337h11.953zM122.829 309h11.57v-28.86c0-6.232 4.698-10.643 11.058-10.643 1.95 0 4.379.352 5.37.671v-10.642c-1.055-.192-2.877-.32-4.155-.32-5.625 0-10.323 3.196-12.113 8.885h-.512v-8.182h-11.218V309zm55.395.959c11.442 0 19.304-5.593 21.35-14.127l-10.803-1.214c-1.566 4.155-5.401 6.328-10.387 6.328-7.478 0-12.432-4.922-12.528-13.327h34.197v-3.548c0-17.227-10.355-24.801-22.436-24.801-14.062 0-23.235 10.323-23.235 25.472 0 15.405 9.045 25.217 23.842 25.217zm-12.336-30.139c.351-6.264 4.986-11.537 11.889-11.537 6.648 0 11.122 4.858 11.186 11.537h-23.075zm58.08 30.171c7.702 0 12.304-3.612 14.414-7.735h.383V309h11.122v-32.855c0-12.976-10.579-16.875-19.943-16.875-10.323 0-18.249 4.602-20.806 13.551l10.803 1.534c1.15-3.356 4.41-6.232 10.067-6.232 5.369 0 8.31 2.748 8.31 7.574v.192c0 3.324-3.484 3.484-12.145 4.411-9.524 1.022-18.633 3.867-18.633 14.925 0 9.652 7.063 14.766 16.428 14.766zm3.004-8.502c-4.826 0-8.278-2.205-8.278-6.456 0-4.442 3.867-6.296 9.045-7.031 3.036-.415 9.108-1.182 10.611-2.397v5.785c0 5.465-4.411 10.099-11.378 10.099zm59.062-41.58h-9.684v-11.761h-11.569v11.761h-6.968v8.949h6.968v27.294c-.064 9.236 6.647 13.775 15.341 13.519 3.292-.096 5.561-.735 6.807-1.15l-1.949-9.045c-.64.16-1.95.447-3.388.447-2.909 0-5.242-1.022-5.242-5.689v-25.376h9.684v-8.949zm30.882 50.05c11.442 0 19.304-5.593 21.349-14.127l-10.802-1.214c-1.566 4.155-5.402 6.328-10.387 6.328-7.479 0-12.433-4.922-12.529-13.327h34.198v-3.548c0-17.227-10.355-24.801-22.436-24.801-14.063 0-23.235 10.323-23.235 25.472 0 15.405 9.044 25.217 23.842 25.217zm-12.337-30.139c.352-6.264 4.986-11.537 11.889-11.537 6.648 0 11.123 4.858 11.186 11.537h-23.075zm84.495 30.043c8.438 0 12.241-5.018 14.063-8.597h.703V309h11.378v-65.455h-11.602v24.482h-.479c-1.758-3.548-5.37-8.757-14.031-8.757-11.346 0-20.263 8.885-20.263 25.248 0 16.172 8.661 25.345 20.231 25.345zm3.228-9.492c-7.638 0-11.665-6.712-11.665-15.916 0-9.141 3.963-15.693 11.665-15.693 7.447 0 11.538 6.168 11.538 15.693 0 9.524-4.155 15.916-11.538 15.916zm56.977 9.588c11.442 0 19.304-5.593 21.35-14.127l-10.803-1.214c-1.566 4.155-5.401 6.328-10.387 6.328-7.479 0-12.433-4.922-12.528-13.327h34.197v-3.548c0-17.227-10.355-24.801-22.436-24.801-14.063 0-23.235 10.323-23.235 25.472 0 15.405 9.045 25.217 23.842 25.217zm-12.337-30.139c.352-6.264 4.986-11.537 11.89-11.537 6.647 0 11.122 4.858 11.186 11.537h-23.076zM480.896 309h11.569v-28.86c0-6.232 4.699-10.643 11.059-10.643 1.949 0 4.378.352 5.369.671v-10.642c-1.055-.192-2.876-.32-4.155-.32-5.625 0-10.323 3.196-12.113 8.885h-.511v-8.182h-11.218V309zm35.683 0h11.57v-49.091h-11.57V309zm5.817-56.058c3.676 0 6.68-2.813 6.68-6.264 0-3.484-3.004-6.297-6.68-6.297-3.707 0-6.712 2.813-6.712 6.297 0 3.451 3.005 6.264 6.712 6.264zm61.5 6.967h-12.305l-11.314 36.467h-.511l-11.282-36.467h-12.337L553.629 309h12.784l17.483-49.091zm28.069 50.05c11.441 0 19.304-5.593 21.349-14.127l-10.802-1.214c-1.567 4.155-5.402 6.328-10.388 6.328-7.478 0-12.432-4.922-12.528-13.327h34.198v-3.548c0-17.227-10.356-24.801-22.437-24.801-14.062 0-23.235 10.323-23.235 25.472 0 15.405 9.045 25.217 23.843 25.217zm-12.337-30.139c.352-6.264 4.986-11.537 11.889-11.537 6.648 0 11.122 4.858 11.186 11.537h-23.075zm62.171 30.043c8.437 0 12.24-5.018 14.062-8.597h.703V309h11.378v-65.455h-11.601v24.482h-.48c-1.758-3.548-5.369-8.757-14.03-8.757-11.346 0-20.263 8.885-20.263 25.248 0 16.172 8.661 25.345 20.231 25.345zm3.228-9.492c-7.639 0-11.666-6.712-11.666-15.916 0-9.141 3.963-15.693 11.666-15.693 7.446 0 11.537 6.168 11.537 15.693 0 9.524-4.155 15.916-11.537 15.916zm71.694 9.62c7.703 0 12.305-3.612 14.414-7.735h.384V309h11.122v-32.855c0-12.976-10.579-16.875-19.943-16.875-10.323 0-18.249 4.602-20.806 13.551l10.802 1.534c1.151-3.356 4.411-6.232 10.068-6.232 5.369 0 8.31 2.748 8.31 7.574v.192c0 3.324-3.484 3.484-12.145 4.411-9.524 1.022-18.633 3.867-18.633 14.925 0 9.652 7.063 14.766 16.427 14.766zm3.005-8.502c-4.826 0-8.278-2.205-8.278-6.456 0-4.442 3.867-6.296 9.045-7.031 3.036-.415 9.108-1.182 10.611-2.397v5.785c0 5.465-4.411 10.099-11.378 10.099zm59.062-41.58h-9.684v-11.761h-11.569v11.761h-6.968v8.949h6.968v27.294c-.064 9.236 6.647 13.775 15.341 13.519 3.291-.096 5.561-.735 6.807-1.15l-1.95-9.045c-.639.16-1.949.447-3.387.447-2.909 0-5.242-1.022-5.242-5.689v-25.376h9.684v-8.949zm30.562 50.05c14.382 0 23.523-10.132 23.523-25.313 0-15.213-9.141-25.376-23.523-25.376s-23.523 10.163-23.523 25.376c0 15.181 9.141 25.313 23.523 25.313zm.064-9.269c-7.958 0-11.857-7.095-11.857-16.076 0-8.98 3.899-16.172 11.857-16.172 7.83 0 11.729 7.192 11.729 16.172 0 8.981-3.899 16.076-11.729 16.076zm33.279 8.31h11.569v-29.851c0-6.04 4.027-10.131 9.013-10.131 4.89 0 8.246 3.292 8.246 8.341V309h11.346v-30.618c0-5.529 3.292-9.364 8.885-9.364 4.666 0 8.373 2.748 8.373 8.821V309h11.602v-32.951c0-10.962-6.328-16.779-15.341-16.779-7.127 0-12.561 3.516-14.734 8.981h-.511c-1.886-5.561-6.648-8.981-13.264-8.981-6.583 0-11.505 3.388-13.551 8.981h-.575v-8.342h-11.058V309zm119.571-36.115c-1.598-8.31-8.246-13.615-19.752-13.615-11.825 0-19.879 5.817-19.847 14.893-.032 7.159 4.379 11.89 13.807 13.839l8.374 1.758c4.506.991 6.615 2.812 6.615 5.593 0 3.356-3.643 5.881-9.14 5.881-5.306 0-8.757-2.301-9.748-6.712l-11.282 1.087c1.438 9.012 9.013 14.35 21.062 14.35 12.272 0 20.934-6.36 20.966-15.661-.032-6.999-4.539-11.282-13.807-13.295l-8.374-1.79c-4.986-1.119-6.967-2.844-6.935-5.689-.032-3.324 3.643-5.625 8.469-5.625 5.338 0 8.15 2.909 9.045 6.137l10.547-1.151zM1025.31 309h12.09l9.2-33.175h.67l9.21 33.175h12.04l13.91-49.091h-11.83l-8.5 34.325h-.48l-8.82-34.325h-11.67l-8.82 34.517h-.44l-8.63-34.517h-11.8L1025.31 309zm65.2 0h11.56v-49.091h-11.56V309zm5.81-56.058c3.68 0 6.68-2.813 6.68-6.264 0-3.484-3-6.297-6.68-6.297-3.71 0-6.71 2.813-6.71 6.297 0 3.451 3 6.264 6.71 6.264zm42.17 6.967h-9.69v-11.761h-11.57v11.761h-6.97v8.949h6.97v27.294c-.06 9.236 6.65 13.775 15.34 13.519 3.29-.096 5.56-.735 6.81-1.15l-1.95-9.045c-.64.16-1.95.447-3.39.447-2.91 0-5.24-1.022-5.24-5.689v-25.376h9.69v-8.949zm22.3 20.327c0-7.095 4.41-11.186 10.61-11.186 6.07 0 9.65 3.867 9.65 10.483V309h11.57v-31.257c0-11.857-6.71-18.473-16.91-18.473-7.54 0-12.34 3.42-14.6 8.981h-.58v-24.706h-11.31V309h11.57v-28.764zm87.36 29.723c12.34 0 20.2-7.319 21.03-17.738h-11.06c-.99 5.273-4.79 8.31-9.88 8.31-7.22 0-11.88-6.041-11.88-16.076 0-9.908 4.76-15.853 11.88-15.853 5.57 0 8.99 3.58 9.88 8.31h11.06c-.8-10.643-9.11-17.642-21.09-17.642-14.39 0-23.46 10.387-23.46 25.376 0 14.862 8.85 25.313 23.52 25.313zm51.94 0c14.38 0 23.53-10.132 23.53-25.313 0-15.213-9.15-25.376-23.53-25.376s-23.52 10.163-23.52 25.376c0 15.181 9.14 25.313 23.52 25.313zm.07-9.269c-7.96 0-11.86-7.095-11.86-16.076 0-8.98 3.9-16.172 11.86-16.172 7.83 0 11.73 7.192 11.73 16.172 0 8.981-3.9 16.076-11.73 16.076zm33.27 8.31H1345v-29.851c0-6.04 4.03-10.131 9.02-10.131 4.89 0 8.24 3.292 8.24 8.341V309h11.35v-30.618c0-5.529 3.29-9.364 8.88-9.364 4.67 0 8.38 2.748 8.38 8.821V309h11.6v-32.951c0-10.962-6.33-16.779-15.34-16.779-7.13 0-12.56 3.516-14.74 8.981h-.51c-1.88-5.561-6.64-8.981-13.26-8.981-6.58 0-11.51 3.388-13.55 8.981h-.58v-8.342h-11.06V309zm80.78 18.409h11.57v-26.143h.48c1.82 3.579 5.62 8.597 14.06 8.597 11.57 0 20.23-9.173 20.23-25.345 0-16.363-8.92-25.248-20.26-25.248-8.67 0-12.28 5.209-14.03 8.757h-.68v-8.118h-11.37v67.5zm11.34-42.954c0-9.525 4.09-15.693 11.54-15.693 7.7 0 11.67 6.552 11.67 15.693 0 9.204-4.03 15.916-11.67 15.916-7.38 0-11.54-6.392-11.54-15.916zm76.2 3.899c0 7.478-5.34 11.186-10.46 11.186-5.56 0-9.26-3.931-9.26-10.164v-29.467h-11.57v31.257c0 11.794 6.71 18.473 16.36 18.473 7.35 0 12.53-3.867 14.77-9.364h.51V309h11.21v-49.091h-11.56v28.445zm47.98-28.445h-9.69v-11.761h-11.57v11.761h-6.97v8.949h6.97v27.294c-.06 9.236 6.65 13.775 15.34 13.519 3.29-.096 5.56-.735 6.81-1.15l-1.95-9.045c-.64.16-1.95.447-3.39.447-2.91 0-5.24-1.022-5.24-5.689v-25.376h9.69v-8.949zm30.88 50.05c11.44 0 19.3-5.593 21.35-14.127l-10.81-1.214c-1.56 4.155-5.4 6.328-10.38 6.328-7.48 0-12.44-4.922-12.53-13.327h34.2v-3.548c0-17.227-10.36-24.801-22.44-24.801-14.06 0-23.24 10.323-23.24 25.472 0 15.405 9.05 25.217 23.85 25.217zm-12.34-30.139c.35-6.264 4.99-11.537 11.89-11.537 6.65 0 11.12 4.858 11.19 11.537h-23.08zm62.17 30.043c8.44 0 12.24-5.018 14.06-8.597h.71V309h11.37v-65.455h-11.6v24.482h-.48c-1.75-3.548-5.37-8.757-14.03-8.757-11.34 0-20.26 8.885-20.26 25.248 0 16.172 8.66 25.345 20.23 25.345zm3.23-9.492c-7.64 0-11.67-6.712-11.67-15.916 0-9.141 3.97-15.693 11.67-15.693 7.45 0 11.54 6.168 11.54 15.693 0 9.524-4.16 15.916-11.54 15.916zm101.42-40.462h-12.31l-11.31 36.467h-.51l-11.28-36.467h-12.34L1704.82 309h12.78l17.49-49.091zm20.72 50.082c7.71 0 12.31-3.612 14.42-7.735h.38V309h11.12v-32.855c0-12.976-10.58-16.875-19.94-16.875-10.32 0-18.25 4.602-20.81 13.551l10.81 1.534c1.15-3.356 4.41-6.232 10.06-6.232 5.37 0 8.31 2.748 8.31 7.574v.192c0 3.324-3.48 3.484-12.14 4.411-9.53 1.022-18.63 3.867-18.63 14.925 0 9.652 7.06 14.766 16.42 14.766zm3.01-8.502c-4.83 0-8.28-2.205-8.28-6.456 0-4.442 3.87-6.296 9.04-7.031 3.04-.415 9.11-1.182 10.62-2.397v5.785c0 5.465-4.42 10.099-11.38 10.099zm46.12-57.944h-11.57V309h11.57v-65.455zm43.18 44.809c0 7.478-5.34 11.186-10.45 11.186-5.56 0-9.27-3.931-9.27-10.164v-29.467h-11.57v31.257c0 11.794 6.71 18.473 16.37 18.473 7.35 0 12.53-3.867 14.76-9.364h.51V309h11.22v-49.091h-11.57v28.445zm45.2 21.605c11.44 0 19.31-5.593 21.35-14.127l-10.8-1.214c-1.57 4.155-5.4 6.328-10.39 6.328-7.48 0-12.43-4.922-12.53-13.327h34.2v-3.548c0-17.227-10.35-24.801-22.44-24.801-14.06 0-23.23 10.323-23.23 25.472 0 15.405 9.04 25.217 23.84 25.217zm-12.33-30.139c.35-6.264 4.98-11.537 11.88-11.537 6.65 0 11.13 4.858 11.19 11.537h-23.07zm82.75-6.935c-1.6-8.31-8.25-13.615-19.75-13.615-11.83 0-19.88 5.817-19.85 14.893-.03 7.159 4.38 11.89 13.81 13.839l8.37 1.758c4.51.991 6.62 2.812 6.62 5.593 0 3.356-3.65 5.881-9.14 5.881-5.31 0-8.76-2.301-9.75-6.712l-11.28 1.087c1.43 9.012 9.01 14.35 21.06 14.35 12.27 0 20.93-6.36 20.96-15.661-.03-6.999-4.54-11.282-13.8-13.295l-8.38-1.79c-4.98-1.119-6.96-2.844-6.93-5.689-.03-3.324 3.64-5.625 8.47-5.625 5.33 0 8.15 2.909 9.04 6.137l10.55-1.151z" fill="#CCC"/><path d="M66.158 183.604c8.398 0 13.316-6.854 13.316-18.768 0-11.825-4.989-18.697-13.316-18.697-8.346 0-13.317 6.854-13.335 18.697 0 11.896 4.919 18.75 13.335 18.768zm0-4.741c-4.919 0-7.884-4.936-7.884-14.027.018-9.055 2.983-14.045 7.884-14.045 4.882 0 7.865 4.99 7.865 14.045 0 9.091-2.965 14.027-7.865 14.027zm18.852-2.965h17.241V183h5.237v-7.102h4.812v-4.652h-4.812v-24.61h-6.764L85.01 171.459v4.439zm17.276-4.652H90.763v-.284l11.239-17.792h.284v18.076z" fill="#000"/></svg>