<svg width="2480" height="465" fill="none" xmlns="http://www.w3.org/2000/svg"><path fill="#fff" d="M0 0h2480v465H0z"/><path d="M2391.85 243.545h-9.53v47.973l-18.18-18.186-6.52 6.584 29.47 29.468 29.53-29.468-6.65-6.584-18.12 18.186v-47.973zM70.23 309h11.698l13.136-45.927h.511L108.68 309h11.697l18.473-65.455h-12.752l-11.793 48.133h-.575l-12.625-48.133H89.503L76.91 291.646h-.607L64.51 243.545H51.758L70.23 309zm73.254 0h11.569v-28.86c0-6.232 4.698-10.643 11.059-10.643 1.949 0 4.378.352 5.369.671v-10.642c-1.055-.192-2.877-.32-4.155-.32-5.625 0-10.323 3.196-12.113 8.885h-.511v-8.182h-11.218V309zm48.843.991c7.702 0 12.305-3.612 14.414-7.735h.383V309h11.123v-32.855c0-12.976-10.579-16.875-19.944-16.875-10.323 0-18.249 4.602-20.806 13.551l10.803 1.534c1.15-3.356 4.41-6.232 10.067-6.232 5.37 0 8.31 2.748 8.31 7.574v.192c0 3.324-3.484 3.484-12.145 4.411-9.524 1.022-18.633 3.867-18.633 14.925 0 9.652 7.064 14.766 16.428 14.766zm3.004-8.502c-4.826 0-8.278-2.205-8.278-6.456 0-4.442 3.868-6.296 9.045-7.031 3.036-.415 9.109-1.182 10.611-2.397v5.785c0 5.465-4.411 10.099-11.378 10.099zm34.549 25.92h11.57v-26.143h.479c1.822 3.579 5.625 8.597 14.063 8.597 11.569 0 20.23-9.173 20.23-25.345 0-16.363-8.916-25.248-20.262-25.248-8.662 0-12.273 5.209-14.031 8.757h-.671v-8.118H229.88v67.5zm11.346-42.954c0-9.525 4.091-15.693 11.538-15.693 7.702 0 11.665 6.552 11.665 15.693 0 9.204-4.027 15.916-11.665 15.916-7.383 0-11.538-6.392-11.538-15.916zm74.419 42.954c9.013 0 14.223-4.634 17.003-12.464l19.72-54.972-12.369-.064-11.346 37.074h-.511l-11.314-37.074h-12.273l17.802 50.114-.991 2.652c-2.141 5.593-5.529 5.977-10.579 4.507l-2.684 9.013c1.566.639 4.378 1.214 7.542 1.214zm64.496-17.45c14.382 0 23.523-10.132 23.523-25.313 0-15.213-9.141-25.376-23.523-25.376s-23.523 10.163-23.523 25.376c0 15.181 9.141 25.313 23.523 25.313zm.064-9.269c-7.958 0-11.857-7.095-11.857-16.076 0-8.98 3.899-16.172 11.857-16.172 7.83 0 11.729 7.192 11.729 16.172 0 8.981-3.899 16.076-11.729 16.076zm64.568-12.336c0 7.478-5.338 11.186-10.451 11.186-5.561 0-9.269-3.931-9.269-10.164v-29.467h-11.569v31.257c0 11.794 6.711 18.473 16.363 18.473 7.351 0 12.529-3.867 14.766-9.364h.511V309h11.218v-49.091h-11.569v28.445zM468.24 309h11.569v-28.86c0-6.232 4.698-10.643 11.058-10.643 1.95 0 4.379.352 5.37.671v-10.642c-1.055-.192-2.877-.32-4.155-.32-5.625 0-10.323 3.196-12.113 8.885h-.511v-8.182H468.24V309zm79.421.959c12.336 0 20.199-7.319 21.03-17.738h-11.059c-.99 5.273-4.794 8.31-9.875 8.31-7.223 0-11.89-6.041-11.89-16.076 0-9.908 4.762-15.853 11.89-15.853 5.561 0 8.98 3.58 9.875 8.31h11.059c-.799-10.643-9.109-17.642-21.094-17.642-14.382 0-23.459 10.387-23.459 25.376 0 14.862 8.853 25.313 23.523 25.313zm51.943 0c14.382 0 23.523-10.132 23.523-25.313 0-15.213-9.141-25.376-23.523-25.376s-23.523 10.163-23.523 25.376c0 15.181 9.141 25.313 23.523 25.313zm.064-9.269c-7.958 0-11.857-7.095-11.857-16.076 0-8.98 3.899-16.172 11.857-16.172 7.83 0 11.729 7.192 11.729 16.172 0 8.981-3.899 16.076-11.729 16.076zm33.279 8.31h11.569v-29.851c0-6.04 4.027-10.131 9.013-10.131 4.89 0 8.246 3.292 8.246 8.341V309h11.346v-30.618c0-5.529 3.291-9.364 8.885-9.364 4.666 0 8.373 2.748 8.373 8.821V309h11.602v-32.951c0-10.962-6.328-16.779-15.341-16.779-7.127 0-12.561 3.516-14.734 8.981h-.511c-1.886-5.561-6.648-8.981-13.264-8.981-6.584 0-11.505 3.388-13.551 8.981h-.575v-8.342h-11.058V309zm80.771 18.409h11.57v-26.143h.479c1.822 3.579 5.625 8.597 14.063 8.597 11.569 0 20.23-9.173 20.23-25.345 0-16.363-8.917-25.248-20.262-25.248-8.662 0-12.273 5.209-14.031 8.757h-.671v-8.118h-11.378v67.5zm11.346-42.954c0-9.525 4.091-15.693 11.538-15.693 7.702 0 11.665 6.552 11.665 15.693 0 9.204-4.027 15.916-11.665 15.916-7.383 0-11.538-6.392-11.538-15.916zm66.317 25.504c14.382 0 23.523-10.132 23.523-25.313 0-15.213-9.141-25.376-23.523-25.376s-23.522 10.163-23.522 25.376c0 15.181 9.14 25.313 23.522 25.313zm.064-9.269c-7.958 0-11.857-7.095-11.857-16.076 0-8.98 3.899-16.172 11.857-16.172 7.831 0 11.73 7.192 11.73 16.172 0 8.981-3.899 16.076-11.73 16.076zm44.849-20.454c0-7.095 4.282-11.186 10.387-11.186 5.976 0 9.556 3.931 9.556 10.483V309h11.569v-31.257c.032-11.761-6.679-18.473-16.811-18.473-7.351 0-12.4 3.516-14.638 8.981h-.575v-8.342h-11.058V309h11.57v-28.764zm65.007 29.723c11.441 0 19.304-5.593 21.349-14.127l-10.803-1.214c-1.566 4.155-5.401 6.328-10.387 6.328-7.478 0-12.432-4.922-12.528-13.327h34.197v-3.548c0-17.227-10.355-24.801-22.436-24.801-14.062 0-23.235 10.323-23.235 25.472 0 15.405 9.045 25.217 23.843 25.217zm-12.337-30.139c.352-6.264 4.986-11.537 11.889-11.537 6.648 0 11.122 4.858 11.186 11.537h-23.075zm55.523.416c0-7.095 4.283-11.186 10.387-11.186 5.976 0 9.556 3.931 9.556 10.483V309H976v-31.257c.032-11.761-6.68-18.473-16.811-18.473-7.351 0-12.401 3.516-14.638 8.981h-.576v-8.342h-11.058V309h11.57v-28.764zm67.783-20.327h-9.68v-11.761h-11.569v11.761h-6.967v8.949h6.967v27.294c-.064 9.236 6.648 13.775 15.339 13.519 3.29-.096 5.56-.735 6.81-1.15l-1.95-9.045c-.64.16-1.95.447-3.39.447-2.91 0-5.24-1.022-5.24-5.689v-25.376h9.68v-8.949zm56.52 0h-9.69v-11.761h-11.57v11.761h-6.96v8.949h6.96v27.294c-.06 9.236 6.65 13.775 15.35 13.519 3.29-.096 5.56-.735 6.8-1.15l-1.95-9.045c-.64.16-1.95.447-3.38.447-2.91 0-5.25-1.022-5.25-5.689v-25.376h9.69v-8.949zm9.67 49.091h11.57v-28.86c0-6.232 4.7-10.643 11.06-10.643 1.95 0 4.38.352 5.37.671v-10.642c-1.05-.192-2.88-.32-4.15-.32-5.63 0-10.33 3.196-12.12 8.885h-.51v-8.182h-11.22V309zm55.4.959c11.44 0 19.3-5.593 21.35-14.127l-10.8-1.214c-1.57 4.155-5.41 6.328-10.39 6.328-7.48 0-12.43-4.922-12.53-13.327h34.2v-3.548c0-17.227-10.36-24.801-22.44-24.801-14.06 0-23.23 10.323-23.23 25.472 0 15.405 9.04 25.217 23.84 25.217zm-12.34-30.139c.35-6.264 4.99-11.537 11.89-11.537 6.65 0 11.12 4.858 11.19 11.537h-23.08zm65.69 30.139c11.44 0 19.3-5.593 21.35-14.127l-10.8-1.214c-1.57 4.155-5.41 6.328-10.39 6.328-7.48 0-12.43-4.922-12.53-13.327h34.2v-3.548c0-17.227-10.36-24.801-22.44-24.801-14.06 0-23.23 10.323-23.23 25.472 0 15.405 9.04 25.217 23.84 25.217zm-12.34-30.139c.35-6.264 4.99-11.537 11.89-11.537 6.65 0 11.12 4.858 11.19 11.537h-23.08zm76.41 29.18h12.08l9.21-33.175h.67l9.2 33.175h12.05l13.9-49.091h-11.82l-8.5 34.325h-.48l-8.82-34.325h-11.67l-8.82 34.517h-.45l-8.63-34.517h-11.79L1251.28 309zm65.19 0h11.57v-49.091h-11.57V309zm5.82-56.058c3.67 0 6.68-2.813 6.68-6.264 0-3.484-3.01-6.297-6.68-6.297-3.71 0-6.71 2.813-6.71 6.297 0 3.451 3 6.264 6.71 6.264zm42.16 6.967h-9.68v-11.761h-11.57v11.761h-6.97v8.949h6.97v27.294c-.07 9.236 6.65 13.775 15.34 13.519 3.29-.096 5.56-.735 6.81-1.15l-1.95-9.045c-.64.16-1.95.447-3.39.447-2.91 0-5.24-1.022-5.24-5.689v-25.376h9.68v-8.949zm22.3 20.327c0-7.095 4.41-11.186 10.61-11.186 6.08 0 9.66 3.867 9.66 10.483V309h11.56v-31.257c0-11.857-6.71-18.473-16.9-18.473-7.54 0-12.34 3.42-14.61 8.981h-.57v-24.706h-11.32V309h11.57v-28.764zm92.29-36.691v46.023c-.03 6.904-3.23 10.579-8.92 10.579-5.3 0-8.85-3.228-8.95-8.533h-11.79c0 12.081 8.82 18.281 20.29 18.281 12.63 0 21.1-7.671 21.13-20.327v-46.023h-11.76zm45.52 66.414c14.39 0 23.53-10.132 23.53-25.313 0-15.213-9.14-25.376-23.53-25.376-14.38 0-23.52 10.163-23.52 25.376 0 15.181 9.14 25.313 23.52 25.313zm.07-9.269c-7.96 0-11.86-7.095-11.86-16.076 0-8.98 3.9-16.172 11.86-16.172 7.83 0 11.73 7.192 11.73 16.172 0 8.981-3.9 16.076-11.73 16.076zm57.79-40.781h-9.68v-11.761h-11.57v11.761h-6.97v8.949h6.97v27.294c-.07 9.236 6.65 13.775 15.34 13.519 3.29-.096 5.56-.735 6.81-1.15l-1.95-9.045c-.64.16-1.95.447-3.39.447-2.91 0-5.24-1.022-5.24-5.689v-25.376h9.68v-8.949zm23.8 50.082c7.71 0 12.31-3.612 14.42-7.735h.38V309h11.12v-32.855c0-12.976-10.58-16.875-19.94-16.875-10.32 0-18.25 4.602-20.81 13.551l10.81 1.534c1.15-3.356 4.41-6.232 10.06-6.232 5.37 0 8.31 2.748 8.31 7.574v.192c0 3.324-3.48 3.484-12.14 4.411-9.53 1.022-18.63 3.867-18.63 14.925 0 9.652 7.06 14.766 16.42 14.766zm3.01-8.502c-4.83 0-8.28-2.205-8.28-6.456 0-4.442 3.87-6.296 9.04-7.031 3.04-.415 9.11-1.182 10.62-2.397v5.785c0 5.465-4.42 10.099-11.38 10.099zm34.55 7.511h11.57v-49.091h-11.57V309zm5.81-56.058c3.68 0 6.68-2.813 6.68-6.264 0-3.484-3-6.297-6.68-6.297-3.7 0-6.71 2.813-6.71 6.297 0 3.451 3.01 6.264 6.71 6.264zm25.64-9.397h-8.82v24.098h8.82v-24.098zm49.97 29.34c-1.59-8.31-8.24-13.615-19.75-13.615-11.82 0-19.88 5.817-19.85 14.893-.03 7.159 4.38 11.89 13.81 13.839l8.37 1.758c4.51.991 6.62 2.812 6.62 5.593 0 3.356-3.64 5.881-9.14 5.881-5.31 0-8.76-2.301-9.75-6.712l-11.28 1.087c1.44 9.012 9.01 14.35 21.06 14.35 12.27 0 20.94-6.36 20.97-15.661-.03-6.999-4.54-11.282-13.81-13.295l-8.37-1.79c-4.99-1.119-6.97-2.844-6.94-5.689-.03-3.324 3.65-5.625 8.47-5.625 5.34 0 8.15 2.909 9.05 6.137l10.54-1.151zM1758.63 309h11.86v-22.116h12.53c15.12 0 23.23-9.077 23.23-21.67 0-12.496-8.02-21.669-23.07-21.669h-24.55V309zm11.86-31.864v-23.683h10.87c8.88 0 12.81 4.794 12.81 11.761 0 6.968-3.93 11.922-12.75 11.922h-10.93zM1816.04 309h11.57v-28.86c0-6.232 4.7-10.643 11.06-10.643 1.95 0 4.38.352 5.37.671v-10.642c-1.06-.192-2.88-.32-4.16-.32-5.62 0-10.32 3.196-12.11 8.885h-.51v-8.182h-11.22V309zm55.08.959c14.38 0 23.52-10.132 23.52-25.313 0-15.213-9.14-25.376-23.52-25.376-14.38 0-23.53 10.163-23.53 25.376 0 15.181 9.15 25.313 23.53 25.313zm.06-9.269c-7.96 0-11.86-7.095-11.86-16.076 0-8.98 3.9-16.172 11.86-16.172 7.83 0 11.73 7.192 11.73 16.172 0 8.981-3.9 16.076-11.73 16.076zm75.46-40.781h-12.3l-11.32 36.467h-.51l-11.28-36.467h-12.34L1916.37 309h12.79l17.48-49.091zm8.01 49.091h11.57v-49.091h-11.57V309zm5.81-56.058c3.68 0 6.68-2.813 6.68-6.264 0-3.484-3-6.297-6.68-6.297-3.7 0-6.71 2.813-6.71 6.297 0 3.451 3.01 6.264 6.71 6.264zm35.87 56.921c8.44 0 12.24-5.018 14.06-8.597h.71V309h11.37v-65.455h-11.6v24.482h-.48c-1.76-3.548-5.37-8.757-14.03-8.757-11.34 0-20.26 8.885-20.26 25.248 0 16.172 8.66 25.345 20.23 25.345zm3.23-9.492c-7.64 0-11.67-6.712-11.67-15.916 0-9.141 3.97-15.693 11.67-15.693 7.44 0 11.54 6.168 11.54 15.693 0 9.524-4.16 15.916-11.54 15.916zm56.97 9.588c11.45 0 19.31-5.593 21.35-14.127l-10.8-1.214c-1.56 4.155-5.4 6.328-10.39 6.328-7.47 0-12.43-4.922-12.52-13.327h34.19v-3.548c0-17.227-10.35-24.801-22.43-24.801-14.06 0-23.24 10.323-23.24 25.472 0 15.405 9.05 25.217 23.84 25.217zm-12.33-30.139c.35-6.264 4.98-11.537 11.89-11.537 6.65 0 11.12 4.858 11.18 11.537h-23.07zm43.95 29.18h11.57v-28.86c0-6.232 4.7-10.643 11.06-10.643 1.95 0 4.38.352 5.37.671v-10.642c-1.06-.192-2.88-.32-4.16-.32-5.62 0-10.32 3.196-12.11 8.885h-.51v-8.182h-11.22V309z" fill="#CCC"/><path d="M66.158 183.604c8.398 0 13.316-6.854 13.316-18.768 0-11.825-4.989-18.697-13.316-18.697-8.346 0-13.317 6.854-13.335 18.697 0 11.896 4.919 18.75 13.335 18.768zm0-4.741c-4.919 0-7.884-4.936-7.884-14.027.018-9.055 2.983-14.045 7.884-14.045 4.882 0 7.865 4.99 7.865 14.045 0 9.091-2.965 14.027-7.865 14.027zM85.773 183h23.935v-4.705h-16.37v-.267l7.226-7.564c6.658-6.729 8.558-9.943 8.558-14.009 0-5.841-4.759-10.316-11.612-10.316-6.8 0-11.772 4.404-11.772 11.044h5.238c-.018-3.906 2.503-6.463 6.427-6.463 3.693 0 6.499 2.273 6.499 5.895 0 3.214-1.918 5.522-5.824 9.659l-12.305 12.749V183z" fill="#000"/></svg>