<svg width="2480" height="465" fill="none" xmlns="http://www.w3.org/2000/svg"><path fill="#fff" d="M0 0h2480v465H0z"/><path d="M2391.85 243.545h-9.53v47.973l-18.18-18.186-6.52 6.584 29.47 29.468 29.53-29.468-6.65-6.584-18.12 18.186v-47.973zm-2294.133 0v41.772c0 8.214-5.721 14.095-14.702 14.095-9.013 0-14.702-5.881-14.702-14.095v-41.772H56.456v42.763c0 14.063 10.547 23.683 26.559 23.683 15.948 0 26.559-9.62 26.559-23.683v-42.763H97.717zm63.033 29.34c-1.598-8.31-8.246-13.615-19.751-13.615-11.826 0-19.88 5.817-19.848 14.893-.032 7.159 4.379 11.89 13.807 13.839l8.374 1.758c4.506.991 6.616 2.812 6.616 5.593 0 3.356-3.644 5.881-9.141 5.881-5.305 0-8.757-2.301-9.748-6.712l-11.282 1.087c1.438 9.012 9.013 14.35 21.062 14.35 12.273 0 20.934-6.36 20.966-15.661-.032-6.999-4.538-11.282-13.807-13.295l-8.374-1.79c-4.985-1.119-6.967-2.844-6.935-5.689-.032-3.324 3.644-5.625 8.47-5.625 5.337 0 8.149 2.909 9.044 6.137l10.547-1.151zm32.328 37.074c11.442 0 19.304-5.593 21.349-14.127l-10.802-1.214c-1.566 4.155-5.401 6.328-10.387 6.328-7.479 0-12.433-4.922-12.529-13.327h34.198v-3.548c0-17.227-10.355-24.801-22.436-24.801-14.063 0-23.235 10.323-23.235 25.472 0 15.405 9.044 25.217 23.842 25.217zm-12.337-30.139c.352-6.264 4.986-11.537 11.89-11.537 6.647 0 11.122 4.858 11.186 11.537h-23.076zm90.791-19.911h-9.684v-11.761h-11.569v11.761h-6.968v8.949h6.968v27.294c-.064 9.236 6.647 13.775 15.341 13.519 3.292-.096 5.561-.735 6.807-1.15l-1.949-9.045c-.64.16-1.95.447-3.388.447-2.909 0-5.242-1.022-5.242-5.689v-25.376h9.684v-8.949zm22.301 20.327c0-7.095 4.41-11.186 10.61-11.186 6.073 0 9.652 3.867 9.652 10.483V309h11.57v-31.257c0-11.857-6.712-18.473-16.907-18.473-7.543 0-12.337 3.42-14.606 8.981h-.575v-24.706h-11.314V309h11.57v-28.764zm65.358 29.723c11.442 0 19.304-5.593 21.35-14.127l-10.803-1.214c-1.566 4.155-5.401 6.328-10.387 6.328-7.479 0-12.432-4.922-12.528-13.327h34.197v-3.548c0-17.227-10.355-24.801-22.436-24.801-14.063 0-23.235 10.323-23.235 25.472 0 15.405 9.045 25.217 23.842 25.217zm-12.336-30.139c.351-6.264 4.985-11.537 11.889-11.537 6.648 0 11.122 4.858 11.186 11.537h-23.075zm80.404 30.171c7.702 0 12.304-3.612 14.414-7.735h.383V309h11.122v-32.855c0-12.976-10.579-16.875-19.943-16.875-10.323 0-18.249 4.602-20.806 13.551l10.803 1.534c1.15-3.356 4.41-6.232 10.067-6.232 5.369 0 8.31 2.748 8.31 7.574v.192c0 3.324-3.484 3.484-12.145 4.411-9.524 1.022-18.633 3.867-18.633 14.925 0 9.652 7.063 14.766 16.428 14.766zm3.004-8.502c-4.826 0-8.278-2.205-8.278-6.456 0-4.442 3.867-6.296 9.045-7.031 3.036-.415 9.108-1.182 10.611-2.397v5.785c0 5.465-4.411 10.099-11.378 10.099zm59.062-41.58h-9.684v-11.761h-11.569v11.761h-6.968v8.949h6.968v27.294c-.064 9.236 6.647 13.775 15.341 13.519 3.292-.096 5.561-.735 6.807-1.15l-1.949-9.045c-.64.16-1.95.447-3.388.447-2.909 0-5.242-1.022-5.242-5.689v-25.376h9.684v-8.949zm30.562 50.05c14.382 0 23.523-10.132 23.523-25.313 0-15.213-9.141-25.376-23.523-25.376s-23.522 10.163-23.522 25.376c0 15.181 9.14 25.313 23.522 25.313zm.064-9.269c-7.958 0-11.857-7.095-11.857-16.076 0-8.98 3.899-16.172 11.857-16.172 7.83 0 11.73 7.192 11.73 16.172 0 8.981-3.9 16.076-11.73 16.076zM553.23 309h11.569v-29.851c0-6.04 4.027-10.131 9.013-10.131 4.89 0 8.246 3.292 8.246 8.341V309h11.346v-30.618c0-5.529 3.292-9.364 8.885-9.364 4.666 0 8.373 2.748 8.373 8.821V309h11.602v-32.951c0-10.962-6.328-16.779-15.341-16.779-7.127 0-12.56 3.516-14.734 8.981h-.511c-1.886-5.561-6.648-8.981-13.264-8.981-6.583 0-11.505 3.388-13.551 8.981h-.575v-8.342H553.23V309zm103.095 0h11.57v-49.091h-11.57V309zm5.817-56.058c3.676 0 6.68-2.813 6.68-6.264 0-3.484-3.004-6.297-6.68-6.297-3.707 0-6.711 2.813-6.711 6.297 0 3.451 3.004 6.264 6.711 6.264zm29.22 27.294c0-7.095 4.283-11.186 10.387-11.186 5.976 0 9.556 3.931 9.556 10.483V309h11.57v-31.257c.032-11.761-6.68-18.473-16.811-18.473-7.351 0-12.401 3.516-14.638 8.981h-.576v-8.342h-11.058V309h11.57v-28.764zm72.789 47.173c9.013 0 14.223-4.634 17.003-12.464l19.72-54.972-12.369-.064-11.346 37.074h-.511l-11.314-37.074h-12.273l17.802 50.114-.991 2.652c-2.141 5.593-5.529 5.977-10.579 4.507l-2.684 9.013c1.566.639 4.378 1.214 7.542 1.214zm64.496-17.45c14.382 0 23.523-10.132 23.523-25.313 0-15.213-9.141-25.376-23.523-25.376s-23.523 10.163-23.523 25.376c0 15.181 9.141 25.313 23.523 25.313zm.064-9.269c-7.958 0-11.857-7.095-11.857-16.076 0-8.98 3.899-16.172 11.857-16.172 7.83 0 11.729 7.192 11.729 16.172 0 8.981-3.899 16.076-11.729 16.076zm64.568-12.336c0 7.478-5.338 11.186-10.451 11.186-5.561 0-9.269-3.931-9.269-10.164v-29.467H861.99v31.257c0 11.794 6.711 18.473 16.363 18.473 7.351 0 12.529-3.867 14.766-9.364h.511V309h11.218v-49.091h-11.569v28.445zM916.745 309h11.57v-28.86c0-6.232 4.698-10.643 11.058-10.643 1.95 0 4.379.352 5.37.671v-10.642c-1.055-.192-2.877-.32-4.155-.32-5.625 0-10.323 3.196-12.113 8.885h-.512v-8.182h-11.218V309zm79.422.959c12.333 0 20.203-7.319 21.033-17.738h-11.06c-.99 5.273-4.8 8.31-9.878 8.31-7.223 0-11.889-6.041-11.889-16.076 0-9.908 4.762-15.853 11.889-15.853 5.558 0 8.978 3.58 9.878 8.31h11.06c-.8-10.643-9.11-17.642-21.097-17.642-14.382 0-23.459 10.387-23.459 25.376 0 14.862 8.853 25.313 23.523 25.313zm51.943 0c14.38 0 23.52-10.132 23.52-25.313 0-15.213-9.14-25.376-23.52-25.376-14.38 0-23.52 10.163-23.52 25.376 0 15.181 9.14 25.313 23.52 25.313zm.06-9.269c-7.95 0-11.85-7.095-11.85-16.076 0-8.98 3.9-16.172 11.85-16.172 7.83 0 11.73 7.192 11.73 16.172 0 8.981-3.9 16.076-11.73 16.076zm33.28 8.31h11.57v-29.851c0-6.04 4.03-10.131 9.01-10.131 4.89 0 8.25 3.292 8.25 8.341V309h11.35v-30.618c0-5.529 3.29-9.364 8.88-9.364 4.67 0 8.37 2.748 8.37 8.821V309h11.61v-32.951c0-10.962-6.33-16.779-15.34-16.779-7.13 0-12.56 3.516-14.74 8.981h-.51c-1.89-5.561-6.65-8.981-13.26-8.981-6.59 0-11.51 3.388-13.55 8.981h-.58v-8.342h-11.06V309zm80.77 18.409h11.57v-26.143h.48c1.82 3.579 5.63 8.597 14.07 8.597 11.57 0 20.23-9.173 20.23-25.345 0-16.363-8.92-25.248-20.27-25.248-8.66 0-12.27 5.209-14.03 8.757h-.67v-8.118h-11.38v67.5zm11.35-42.954c0-9.525 4.09-15.693 11.54-15.693 7.7 0 11.66 6.552 11.66 15.693 0 9.204-4.02 15.916-11.66 15.916-7.39 0-11.54-6.392-11.54-15.916zm66.32 25.504c14.38 0 23.52-10.132 23.52-25.313 0-15.213-9.14-25.376-23.52-25.376-14.38 0-23.53 10.163-23.53 25.376 0 15.181 9.15 25.313 23.53 25.313zm.06-9.269c-7.96 0-11.86-7.095-11.86-16.076 0-8.98 3.9-16.172 11.86-16.172 7.83 0 11.73 7.192 11.73 16.172 0 8.981-3.9 16.076-11.73 16.076zm44.85-20.454c0-7.095 4.28-11.186 10.39-11.186 5.97 0 9.55 3.931 9.55 10.483V309h11.57v-31.257c.03-11.761-6.68-18.473-16.81-18.473-7.35 0-12.4 3.516-14.64 8.981h-.57v-8.342h-11.06V309h11.57v-28.764zm65.01 29.723c11.44 0 19.3-5.593 21.35-14.127l-10.81-1.214c-1.56 4.155-5.4 6.328-10.38 6.328-7.48 0-12.44-4.922-12.53-13.327h34.2v-3.548c0-17.227-10.36-24.801-22.44-24.801-14.06 0-23.24 10.323-23.24 25.472 0 15.405 9.05 25.217 23.85 25.217zm-12.34-30.139c.35-6.264 4.99-11.537 11.89-11.537 6.65 0 11.12 4.858 11.19 11.537h-23.08zm55.52.416c0-7.095 4.29-11.186 10.39-11.186 5.98 0 9.56 3.931 9.56 10.483V309h11.57v-31.257c.03-11.761-6.68-18.473-16.82-18.473-7.35 0-12.4 3.516-14.63 8.981h-.58v-8.342h-11.06V309h11.57v-28.764zm67.79-20.327h-9.68v-11.761h-11.57v11.761h-6.97v8.949h6.97v27.294c-.07 9.236 6.64 13.775 15.34 13.519 3.29-.096 5.56-.735 6.81-1.15l-1.95-9.045c-.64.16-1.95.447-3.39.447-2.91 0-5.24-1.022-5.24-5.689v-25.376h9.68v-8.949zm47.77 12.976c-1.6-8.31-8.24-13.615-19.75-13.615-11.82 0-19.88 5.817-19.85 14.893-.03 7.159 4.38 11.89 13.81 13.839l8.37 1.758c4.51.991 6.62 2.812 6.62 5.593 0 3.356-3.64 5.881-9.14 5.881-5.31 0-8.76-2.301-9.75-6.712l-11.28 1.087c1.44 9.012 9.01 14.35 21.06 14.35 12.27 0 20.94-6.36 20.97-15.661-.03-6.999-4.54-11.282-13.81-13.295l-8.37-1.79c-4.99-1.119-6.97-2.844-6.94-5.689-.03-3.324 3.65-5.625 8.47-5.625 5.34 0 8.15 2.909 9.05 6.137l10.54-1.151z" fill="#CCC"/><path d="M66.158 183.604c8.398 0 13.316-6.854 13.316-18.768 0-11.825-4.989-18.697-13.316-18.697-8.346 0-13.317 6.854-13.335 18.697 0 11.896 4.919 18.75 13.335 18.768zm0-4.741c-4.919 0-7.884-4.936-7.884-14.027.018-9.055 2.983-14.045 7.884-14.045 4.882 0 7.865 4.99 7.865 14.045 0 9.091-2.965 14.027-7.865 14.027zm32.275 4.634c7.422 0 12.873-4.439 12.855-10.476.018-4.598-2.77-7.901-7.599-8.647v-.284c3.799-.976 6.267-3.959 6.25-8.043.017-5.345-4.368-9.908-11.364-9.908-6.676 0-12.038 4.031-12.216 9.943h5.31c.123-3.338 3.266-5.362 6.835-5.362 3.711 0 6.144 2.255 6.126 5.611.018 3.516-2.806 5.824-6.836 5.824h-3.072v4.474h3.072c5.042 0 7.954 2.557 7.954 6.215 0 3.533-3.071 5.93-7.35 5.93-3.942 0-7.014-2.024-7.227-5.256h-5.575c.23 5.931 5.486 9.979 12.837 9.979z" fill="#000"/></svg>