<svg width="2480" height="465" fill="none" xmlns="http://www.w3.org/2000/svg"><path fill="#fff" d="M0 0h2480v465H0z"/><path d="M2391.85 243.545h-9.53v47.973l-18.18-18.186-6.52 6.584 29.47 29.468 29.53-29.468-6.65-6.584-18.12 18.186v-47.973zM64.862 309l5.4-16.14h24.61l5.433 16.14h12.657l-23.076-65.455H75.25L52.205 309h12.657zm8.597-25.664l8.853-26.367h.511l8.853 26.367H73.46zm85.621-10.451c-1.598-8.31-8.245-13.615-19.751-13.615-11.825 0-19.879 5.817-19.847 14.893-.032 7.159 4.378 11.89 13.806 13.839l8.374 1.758c4.506.991 6.616 2.812 6.616 5.593 0 3.356-3.644 5.881-9.141 5.881-5.305 0-8.757-2.301-9.748-6.712l-11.282 1.087c1.438 9.012 9.013 14.35 21.062 14.35 12.273 0 20.934-6.36 20.966-15.661-.032-6.999-4.538-11.282-13.807-13.295l-8.373-1.79c-4.986-1.119-6.968-2.844-6.936-5.689-.032-3.324 3.644-5.625 8.47-5.625 5.337 0 8.149 2.909 9.044 6.137l10.547-1.151zm17.786 54.524c9.013 0 14.222-4.634 17.003-12.464l19.719-54.972-12.368-.064-11.346 37.074h-.511l-11.314-37.074h-12.273l17.802 50.114-.991 2.652c-2.141 5.593-5.529 5.977-10.579 4.507l-2.684 9.013c1.566.639 4.378 1.214 7.542 1.214zm56.322-47.173c0-7.095 4.283-11.186 10.387-11.186 5.977 0 9.556 3.931 9.556 10.483V309h11.57v-31.257c.032-11.761-6.68-18.473-16.811-18.473-7.351 0-12.401 3.516-14.638 8.981h-.575v-8.342h-11.059V309h11.57v-28.764zm64.688 29.723c12.336 0 20.198-7.319 21.029-17.738h-11.058c-.991 5.273-4.794 8.31-9.876 8.31-7.223 0-11.889-6.041-11.889-16.076 0-9.908 4.762-15.853 11.889-15.853 5.561 0 8.981 3.58 9.876 8.31h11.058c-.799-10.643-9.108-17.642-21.093-17.642-14.382 0-23.459 10.387-23.459 25.376 0 14.862 8.853 25.313 23.523 25.313zm66.98.032c7.703 0 12.305-3.612 14.414-7.735h.384V309h11.122v-32.855c0-12.976-10.579-16.875-19.943-16.875-10.323 0-18.25 4.602-20.806 13.551l10.802 1.534c1.151-3.356 4.411-6.232 10.068-6.232 5.369 0 8.309 2.748 8.309 7.574v.192c0 3.324-3.483 3.484-12.145 4.411-9.524 1.022-18.632 3.867-18.632 14.925 0 9.652 7.063 14.766 16.427 14.766zm3.004-8.502c-4.826 0-8.277-2.205-8.277-6.456 0-4.442 3.867-6.296 9.044-7.031 3.037-.415 9.109-1.182 10.611-2.397v5.785c0 5.465-4.41 10.099-11.378 10.099zm55.963 8.47c12.336 0 20.199-7.319 21.03-17.738h-11.059c-.99 5.273-4.794 8.31-9.875 8.31-7.223 0-11.89-6.041-11.89-16.076 0-9.908 4.763-15.853 11.89-15.853 5.561 0 8.981 3.58 9.875 8.31h11.059c-.799-10.643-9.109-17.642-21.094-17.642-14.382 0-23.459 10.387-23.459 25.376 0 14.862 8.853 25.313 23.523 25.313zm55.043-50.05h-9.684v-11.761h-11.569v11.761h-6.968v8.949h6.968v27.294c-.064 9.236 6.647 13.775 15.341 13.519 3.292-.096 5.561-.735 6.807-1.15l-1.949-9.045c-.64.16-1.95.447-3.388.447-2.909 0-5.242-1.022-5.242-5.689v-25.376h9.684v-8.949zM488.542 309h11.57v-49.091h-11.57V309zm5.817-56.058c3.675 0 6.68-2.813 6.68-6.264 0-3.484-3.005-6.297-6.68-6.297-3.707 0-6.712 2.813-6.712 6.297 0 3.451 3.005 6.264 6.712 6.264zm39.063 57.017c14.383 0 23.523-10.132 23.523-25.313 0-15.213-9.14-25.376-23.523-25.376-14.382 0-23.522 10.163-23.522 25.376 0 15.181 9.14 25.313 23.522 25.313zm.064-9.269c-7.958 0-11.857-7.095-11.857-16.076 0-8.98 3.899-16.172 11.857-16.172 7.831 0 11.73 7.192 11.73 16.172 0 8.981-3.899 16.076-11.73 16.076zm44.849-20.454c0-7.095 4.282-11.186 10.387-11.186 5.976 0 9.556 3.931 9.556 10.483V309h11.569v-31.257c.032-11.761-6.679-18.473-16.811-18.473-7.351 0-12.4 3.516-14.638 8.981h-.575v-8.342h-11.058V309h11.57v-28.764zm82.073-7.351c-1.598-8.31-8.245-13.615-19.751-13.615-11.825 0-19.879 5.817-19.847 14.893-.032 7.159 4.378 11.89 13.806 13.839l8.374 1.758c4.506.991 6.616 2.812 6.616 5.593 0 3.356-3.644 5.881-9.141 5.881-5.305 0-8.757-2.301-9.748-6.712l-11.282 1.087c1.439 9.012 9.013 14.35 21.062 14.35 12.273 0 20.934-6.36 20.966-15.661-.032-6.999-4.538-11.282-13.807-13.295l-8.373-1.79c-4.986-1.119-6.968-2.844-6.936-5.689-.032-3.324 3.644-5.625 8.47-5.625 5.337 0 8.15 2.909 9.045 6.137l10.546-1.151zm35.796 9.428c0 15.948 4.251 29.212 12.656 40.59h10.899c-6.488-8.438-11.506-25.441-11.506-40.59 0-15.181 5.018-32.184 11.506-40.621H708.86c-8.405 11.378-12.656 24.673-12.656 40.621zm44.113-2.077c0-7.095 4.283-11.186 10.387-11.186 5.977 0 9.556 3.931 9.556 10.483V309h11.57v-31.257c.032-11.761-6.68-18.473-16.811-18.473-7.351 0-12.401 3.516-14.638 8.981h-.575v-8.342h-11.059V309h11.57v-28.764zm65.007 29.723c11.442 0 19.304-5.593 21.349-14.127l-10.802-1.214c-1.566 4.155-5.401 6.328-10.387 6.328-7.479 0-12.433-4.922-12.529-13.327h34.198v-3.548c0-17.227-10.355-24.801-22.436-24.801-14.063 0-23.235 10.323-23.235 25.472 0 15.405 9.044 25.217 23.842 25.217zm-12.337-30.139c.352-6.264 4.986-11.537 11.89-11.537 6.647 0 11.122 4.858 11.186 11.537h-23.076zm65.687 30.139c11.441 0 19.304-5.593 21.349-14.127l-10.802-1.214c-1.567 4.155-5.402 6.328-10.388 6.328-7.478 0-12.432-4.922-12.528-13.327h34.197v-3.548c0-17.227-10.355-24.801-22.436-24.801-14.062 0-23.235 10.323-23.235 25.472 0 15.405 9.045 25.217 23.843 25.217zm-12.337-30.139c.352-6.264 4.986-11.537 11.889-11.537 6.648 0 11.122 4.858 11.186 11.537h-23.075zm62.171 30.043c8.437 0 12.24-5.018 14.062-8.597h.703V309h11.378v-65.455H923.05v24.482h-.48c-1.758-3.548-5.369-8.757-14.03-8.757-11.346 0-20.263 8.885-20.263 25.248 0 16.172 8.661 25.345 20.231 25.345zm3.228-9.492c-7.639 0-11.666-6.712-11.666-15.916 0-9.141 3.963-15.693 11.666-15.693 7.446 0 11.537 6.168 11.537 15.693 0 9.524-4.155 15.916-11.537 15.916zm74.043-27.486c-1.598-8.31-8.245-13.615-19.751-13.615-11.825 0-19.879 5.817-19.847 14.893-.032 7.159 4.378 11.89 13.807 13.839l8.373 1.758c4.507.991 6.616 2.812 6.616 5.593 0 3.356-3.644 5.881-9.141 5.881-5.305 0-8.757-2.301-9.748-6.712l-11.282 1.087c1.439 9.012 9.013 14.35 21.062 14.35 12.273 0 20.934-6.36 20.966-15.661-.032-6.999-4.538-11.282-13.807-13.295l-8.373-1.79c-4.986-1.119-6.968-2.844-6.936-5.689-.032-3.324 3.644-5.625 8.47-5.625 5.337 0 8.15 2.909 9.045 6.137l10.546-1.151zm71.721 0c-1.6-8.31-8.25-13.615-19.75-13.615-11.83 0-19.88 5.817-19.85 14.893-.03 7.159 4.38 11.89 13.81 13.839l8.37 1.758c4.51.991 6.62 2.812 6.62 5.593 0 3.356-3.65 5.881-9.14 5.881-5.31 0-8.76-2.301-9.75-6.712l-11.28 1.087c1.43 9.012 9.01 14.35 21.06 14.35 12.27 0 20.93-6.36 20.96-15.661-.03-6.999-4.54-11.282-13.8-13.295l-8.38-1.79c-4.98-1.119-6.96-2.844-6.93-5.689-.03-3.324 3.64-5.625 8.47-5.625 5.33 0 8.15 2.909 9.04 6.137l10.55-1.151zm41.88 15.469c0 7.478-5.34 11.186-10.45 11.186-5.56 0-9.27-3.931-9.27-10.164v-29.467h-11.57v31.257c0 11.794 6.71 18.473 16.37 18.473 7.35 0 12.53-3.867 14.76-9.364h.51V309h11.22v-49.091h-11.57v28.445zm62.27-15.469c-1.6-8.31-8.25-13.615-19.75-13.615-11.83 0-19.88 5.817-19.85 14.893-.03 7.159 4.38 11.89 13.81 13.839l8.37 1.758c4.51.991 6.62 2.812 6.62 5.593 0 3.356-3.65 5.881-9.14 5.881-5.31 0-8.76-2.301-9.75-6.712l-11.28 1.087c1.43 9.012 9.01 14.35 21.06 14.35 12.27 0 20.93-6.36 20.96-15.661-.03-6.999-4.54-11.282-13.8-13.295l-8.38-1.79c-4.98-1.119-6.96-2.844-6.93-5.689-.03-3.324 3.64-5.625 8.47-5.625 5.33 0 8.15 2.909 9.04 6.137l10.55-1.151zm10.59 54.524h11.57v-26.143h.48c1.82 3.579 5.63 8.597 14.06 8.597 11.57 0 20.24-9.173 20.24-25.345 0-16.363-8.92-25.248-20.27-25.248-8.66 0-12.27 5.209-14.03 8.757h-.67v-8.118h-11.38v67.5zm11.35-42.954c0-9.525 4.09-15.693 11.54-15.693 7.7 0 11.66 6.552 11.66 15.693 0 9.204-4.02 15.916-11.66 15.916-7.39 0-11.54-6.392-11.54-15.916zm66.64 25.504c11.44 0 19.3-5.593 21.35-14.127l-10.81-1.214c-1.56 4.155-5.4 6.328-10.38 6.328-7.48 0-12.44-4.922-12.53-13.327h34.2v-3.548c0-17.227-10.36-24.801-22.44-24.801-14.06 0-23.24 10.323-23.24 25.472 0 15.405 9.05 25.217 23.85 25.217zm-12.34-30.139c.35-6.264 4.99-11.537 11.89-11.537 6.65 0 11.12 4.858 11.19 11.537h-23.08zm55.52.416c0-7.095 4.29-11.186 10.39-11.186 5.98 0 9.56 3.931 9.56 10.483V309h11.57v-31.257c.03-11.761-6.68-18.473-16.82-18.473-7.35 0-12.4 3.516-14.63 8.981h-.58v-8.342h-11.06V309h11.57v-28.764zm82.08-7.351c-1.6-8.31-8.25-13.615-19.75-13.615-11.83 0-19.88 5.817-19.85 14.893-.03 7.159 4.38 11.89 13.8 13.839l8.38 1.758c4.5.991 6.61 2.812 6.61 5.593 0 3.356-3.64 5.881-9.14 5.881-5.3 0-8.75-2.301-9.74-6.712l-11.29 1.087c1.44 9.012 9.02 14.35 21.07 14.35 12.27 0 20.93-6.36 20.96-15.661-.03-6.999-4.54-11.282-13.81-13.295l-8.37-1.79c-4.98-1.119-6.97-2.844-6.93-5.689-.04-3.324 3.64-5.625 8.46-5.625 5.34 0 8.15 2.909 9.05 6.137l10.55-1.151zm32.32 37.074c11.45 0 19.31-5.593 21.35-14.127l-10.8-1.214c-1.56 4.155-5.4 6.328-10.39 6.328-7.47 0-12.43-4.922-12.52-13.327h34.19v-3.548c0-17.227-10.35-24.801-22.43-24.801-14.07 0-23.24 10.323-23.24 25.472 0 15.405 9.05 25.217 23.84 25.217zm-12.33-30.139c.35-6.264 4.98-11.537 11.89-11.537 6.64 0 11.12 4.858 11.18 11.537h-23.07zm64.6 2.493c0-15.948-4.25-29.211-12.66-40.589h-10.9c6.49 8.437 11.51 25.44 11.51 40.589 0 15.181-5.02 32.184-11.51 40.622h10.9c8.41-11.378 12.66-24.674 12.66-40.622z" fill="#CCC"/><path d="M66.158 183.604c8.398 0 13.316-6.854 13.316-18.768 0-11.825-4.989-18.697-13.316-18.697-8.346 0-13.317 6.854-13.335 18.697 0 11.896 4.919 18.75 13.335 18.768zm0-4.741c-4.919 0-7.884-4.936-7.884-14.027.018-9.055 2.983-14.045 7.884-14.045 4.882 0 7.865 4.99 7.865 14.045 0 9.091-2.965 14.027-7.865 14.027zm31.618 4.634c7.315 0 12.536-5.167 12.518-12.251.018-7.032-4.883-12.145-11.506-12.145-2.699 0-5.202 1.03-6.623 2.415h-.213l1.154-10.174h15.43v-4.706H88.543l-2.042 18.324 5.025.746c1.367-1.225 3.818-2.06 6.02-2.06 4.314.036 7.439 3.267 7.439 7.706 0 4.368-3.036 7.529-7.209 7.529-3.516 0-6.303-2.238-6.587-5.363h-5.327c.213 5.789 5.238 9.979 11.914 9.979z" fill="#000"/></svg>