<svg width="2480" height="465" fill="none" xmlns="http://www.w3.org/2000/svg"><path fill="#fff" d="M0 0h2480v465H0z"/><path d="M2391.85 243.545h-9.53v47.973l-18.18-18.186-6.52 6.584 29.47 29.468 29.53-29.468-6.65-6.584-18.12 18.186v-47.973zM112.482 265.63c-2.013-14.542-13.2-22.979-27.71-22.979-17.098 0-29.978 12.464-29.978 33.622 0 21.125 12.72 33.622 29.979 33.622 15.564 0 25.888-10.068 27.709-22.564l-11.953-.064c-1.502 7.671-7.766 11.985-15.596 11.985-10.611 0-18.218-7.958-18.218-22.979 0-14.766 7.543-22.98 18.25-22.98 7.958 0 14.19 4.507 15.564 12.337h11.953zM122.829 309h11.57v-28.86c0-6.232 4.698-10.643 11.058-10.643 1.95 0 4.379.352 5.37.671v-10.642c-1.055-.192-2.877-.32-4.155-.32-5.625 0-10.323 3.196-12.113 8.885h-.512v-8.182h-11.218V309zm55.395.959c11.442 0 19.304-5.593 21.35-14.127l-10.803-1.214c-1.566 4.155-5.401 6.328-10.387 6.328-7.478 0-12.432-4.922-12.528-13.327h34.197v-3.548c0-17.227-10.355-24.801-22.436-24.801-14.062 0-23.235 10.323-23.235 25.472 0 15.405 9.045 25.217 23.842 25.217zm-12.336-30.139c.351-6.264 4.986-11.537 11.889-11.537 6.648 0 11.122 4.858 11.186 11.537h-23.075zm58.08 30.171c7.702 0 12.304-3.612 14.414-7.735h.383V309h11.122v-32.855c0-12.976-10.579-16.875-19.943-16.875-10.323 0-18.249 4.602-20.806 13.551l10.803 1.534c1.15-3.356 4.41-6.232 10.067-6.232 5.369 0 8.31 2.748 8.31 7.574v.192c0 3.324-3.484 3.484-12.145 4.411-9.524 1.022-18.633 3.867-18.633 14.925 0 9.652 7.063 14.766 16.428 14.766zm3.004-8.502c-4.826 0-8.278-2.205-8.278-6.456 0-4.442 3.867-6.296 9.045-7.031 3.036-.415 9.108-1.182 10.611-2.397v5.785c0 5.465-4.411 10.099-11.378 10.099zm59.062-41.58h-9.684v-11.761h-11.569v11.761h-6.968v8.949h6.968v27.294c-.064 9.236 6.647 13.775 15.341 13.519 3.292-.096 5.561-.735 6.807-1.15l-1.949-9.045c-.64.16-1.95.447-3.388.447-2.909 0-5.242-1.022-5.242-5.689v-25.376h9.684v-8.949zM295.71 309h11.57v-49.091h-11.57V309zm5.817-56.058c3.675 0 6.68-2.813 6.68-6.264 0-3.484-3.005-6.297-6.68-6.297-3.707 0-6.712 2.813-6.712 6.297 0 3.451 3.005 6.264 6.712 6.264zm29.22 27.294c0-7.095 4.282-11.186 10.387-11.186 5.976 0 9.556 3.931 9.556 10.483V309h11.569v-31.257c.032-11.761-6.679-18.473-16.811-18.473-7.351 0-12.4 3.516-14.637 8.981h-.576v-8.342h-11.058V309h11.57v-28.764zm64.623 48.196c13.264 0 23.044-6.073 23.044-18.633v-49.89h-11.41v8.118h-.639c-1.758-3.548-5.434-8.757-14.095-8.757-11.346 0-20.263 8.885-20.263 25.025 0 16.012 8.917 24.002 20.231 24.002 8.406 0 12.337-4.507 14.127-8.118h.575v9.3c0 7.223-4.794 10.196-11.378 10.196-6.967 0-10.036-3.292-11.442-6.169l-10.419 2.525c2.11 6.872 9.173 12.401 21.669 12.401zm.096-29.212c-7.638 0-11.665-5.944-11.665-14.989 0-8.917 3.963-15.469 11.665-15.469 7.447 0 11.538 6.168 11.538 15.469 0 9.364-4.155 14.989-11.538 14.989zm71.255 10.771c7.703 0 12.305-3.612 14.414-7.735h.384V309h11.122v-32.855c0-12.976-10.579-16.875-19.943-16.875-10.323 0-18.249 4.602-20.806 13.551l10.802 1.534c1.151-3.356 4.411-6.232 10.068-6.232 5.369 0 8.31 2.748 8.31 7.574v.192c0 3.324-3.484 3.484-12.145 4.411-9.524 1.022-18.633 3.867-18.633 14.925 0 9.652 7.063 14.766 16.427 14.766zm3.005-8.502c-4.826 0-8.278-2.205-8.278-6.456 0-4.442 3.867-6.296 9.045-7.031 3.036-.415 9.108-1.182 10.611-2.397v5.785c0 5.465-4.411 10.099-11.378 10.099zm46.118-21.253c0-7.095 4.283-11.186 10.387-11.186 5.977 0 9.556 3.931 9.556 10.483V309h11.57v-31.257c.032-11.761-6.68-18.473-16.811-18.473-7.351 0-12.401 3.516-14.638 8.981h-.575v-8.342h-11.058V309h11.569v-28.764zm79.725 29.755c7.702 0 12.305-3.612 14.414-7.735h.384V309h11.122v-32.855c0-12.976-10.579-16.875-19.943-16.875-10.324 0-18.25 4.602-20.806 13.551l10.802 1.534c1.151-3.356 4.411-6.232 10.068-6.232 5.369 0 8.309 2.748 8.309 7.574v.192c0 3.324-3.483 3.484-12.145 4.411-9.524 1.022-18.632 3.867-18.632 14.925 0 9.652 7.063 14.766 16.427 14.766zm3.004-8.502c-4.826 0-8.277-2.205-8.277-6.456 0-4.442 3.867-6.296 9.044-7.031 3.037-.415 9.109-1.182 10.611-2.397v5.785c0 5.465-4.41 10.099-11.378 10.099zm59.063-41.58h-9.684v-11.761h-11.57v11.761h-6.967v8.949h6.967v27.294c-.064 9.236 6.648 13.775 15.341 13.519 3.292-.096 5.561-.735 6.808-1.15l-1.95-9.045c-.639.16-1.949.447-3.388.447-2.908 0-5.241-1.022-5.241-5.689v-25.376h9.684v-8.949zm30.562 50.05c14.382 0 23.523-10.132 23.523-25.313 0-15.213-9.141-25.376-23.523-25.376s-23.523 10.163-23.523 25.376c0 15.181 9.141 25.313 23.523 25.313zm.064-9.269c-7.958 0-11.858-7.095-11.858-16.076 0-8.98 3.9-16.172 11.858-16.172 7.83 0 11.729 7.192 11.729 16.172 0 8.981-3.899 16.076-11.729 16.076zM721.54 309h11.57v-29.851c0-6.04 4.027-10.131 9.013-10.131 4.89 0 8.245 3.292 8.245 8.341V309h11.346v-30.618c0-5.529 3.292-9.364 8.885-9.364 4.666 0 8.374 2.748 8.374 8.821V309h11.601v-32.951c0-10.962-6.328-16.779-15.341-16.779-7.127 0-12.56 3.516-14.733 8.981h-.512c-1.885-5.561-6.647-8.981-13.263-8.981-6.584 0-11.506 3.388-13.551 8.981h-.575v-8.342H721.54V309zm127.961-49.091h-10.195v-3.867c0-3.835 1.598-5.977 5.912-5.977 1.822 0 3.356.416 4.315.703l2.333-8.948c-1.502-.512-4.794-1.343-8.789-1.343-8.533 0-15.341 4.89-15.341 14.798v4.634h-7.255v8.949h7.255V309h11.57v-40.142h10.195v-8.949zM858.562 309h11.569v-28.86c0-6.232 4.699-10.643 11.059-10.643 1.949 0 4.378.352 5.369.671v-10.642c-1.055-.192-2.876-.32-4.155-.32-5.625 0-10.323 3.196-12.113 8.885h-.511v-8.182h-11.218V309zm55.075.959c14.382 0 23.523-10.132 23.523-25.313 0-15.213-9.141-25.376-23.523-25.376s-23.522 10.163-23.522 25.376c0 15.181 9.14 25.313 23.522 25.313zm.064-9.269c-7.958 0-11.857-7.095-11.857-16.076 0-8.98 3.899-16.172 11.857-16.172 7.83 0 11.73 7.192 11.73 16.172 0 8.981-3.9 16.076-11.73 16.076zM946.98 309h11.569v-29.851c0-6.04 4.027-10.131 9.013-10.131 4.89 0 8.246 3.292 8.246 8.341V309h11.346v-30.618c0-5.529 3.292-9.364 8.885-9.364 4.661 0 8.371 2.748 8.371 8.821V309h11.6v-32.951c0-10.962-6.32-16.779-15.34-16.779-7.124 0-12.557 3.516-14.731 8.981h-.511c-1.886-5.561-6.648-8.981-13.264-8.981-6.583 0-11.505 3.388-13.551 8.981h-.575v-8.342H946.98V309zm103.1 0h11.57v-29.851c0-6.04 4.02-10.131 9.01-10.131 4.89 0 8.24 3.292 8.24 8.341V309h11.35v-30.618c0-5.529 3.29-9.364 8.88-9.364 4.67 0 8.38 2.748 8.38 8.821V309h11.6v-32.951c0-10.962-6.33-16.779-15.34-16.779-7.13 0-12.56 3.516-14.74 8.981h-.51c-1.88-5.561-6.64-8.981-13.26-8.981-6.58 0-11.51 3.388-13.55 8.981h-.58v-8.342h-11.05V309zm112.06-20.646c0 7.478-5.34 11.186-10.45 11.186-5.57 0-9.27-3.931-9.27-10.164v-29.467h-11.57v31.257c0 11.794 6.71 18.473 16.36 18.473 7.35 0 12.53-3.867 14.77-9.364h.51V309h11.22v-49.091h-11.57v28.445zm35.03-44.809h-11.57V309h11.57v-65.455zm36.41 16.364h-9.68v-11.761h-11.57v11.761h-6.97v8.949h6.97v27.294c-.06 9.236 6.65 13.775 15.34 13.519 3.29-.096 5.56-.735 6.81-1.15l-1.95-9.045c-.64.16-1.95.447-3.39.447-2.91 0-5.24-1.022-5.24-5.689v-25.376h9.68v-8.949zm9.68 49.091h11.57v-49.091h-11.57V309zm5.82-56.058c3.67 0 6.68-2.813 6.68-6.264 0-3.484-3.01-6.297-6.68-6.297-3.71 0-6.72 2.813-6.72 6.297 0 3.451 3.01 6.264 6.72 6.264zm17.65 74.467h11.57v-26.143h.47c1.83 3.579 5.63 8.597 14.07 8.597 11.57 0 20.23-9.173 20.23-25.345 0-16.363-8.92-25.248-20.26-25.248-8.67 0-12.28 5.209-14.04 8.757h-.67v-8.118h-11.37v67.5zm11.34-42.954c0-9.525 4.09-15.693 11.54-15.693 7.7 0 11.66 6.552 11.66 15.693 0 9.204-4.02 15.916-11.66 15.916-7.38 0-11.54-6.392-11.54-15.916zm56.48-40.91h-11.57V309h11.57v-65.455zm33.63 66.414c11.44 0 19.3-5.593 21.35-14.127l-10.81-1.214c-1.56 4.155-5.4 6.328-10.38 6.328-7.48 0-12.44-4.922-12.53-13.327H1390v-3.548c0-17.227-10.35-24.801-22.43-24.801-14.06 0-23.24 10.323-23.24 25.472 0 15.405 9.05 25.217 23.85 25.217zm-12.34-30.139c.35-6.264 4.98-11.537 11.89-11.537 6.65 0 11.12 4.858 11.18 11.537h-23.07zm80.4 30.171c7.71 0 12.31-3.612 14.42-7.735h.38V309h11.12v-32.855c0-12.976-10.58-16.875-19.94-16.875-10.32 0-18.25 4.602-20.81 13.551l10.81 1.534c1.15-3.356 4.41-6.232 10.06-6.232 5.37 0 8.31 2.748 8.31 7.574v.192c0 3.324-3.48 3.484-12.14 4.411-9.53 1.022-18.63 3.867-18.63 14.925 0 9.652 7.06 14.766 16.42 14.766zm3.01-8.502c-4.83 0-8.28-2.205-8.28-6.456 0-4.442 3.87-6.296 9.04-7.031 3.04-.415 9.11-1.182 10.61-2.397v5.785c0 5.465-4.41 10.099-11.37 10.099zm59.06-41.58h-9.68v-11.761h-11.57v11.761h-6.97v8.949h6.97v27.294c-.07 9.236 6.64 13.775 15.34 13.519 3.29-.096 5.56-.735 6.8-1.15l-1.95-9.045c-.63.16-1.94.447-3.38.447-2.91 0-5.24-1.022-5.24-5.689v-25.376h9.68v-8.949zm30.56 50.05c14.38 0 23.52-10.132 23.52-25.313 0-15.213-9.14-25.376-23.52-25.376-14.38 0-23.52 10.163-23.52 25.376 0 15.181 9.14 25.313 23.52 25.313zm.07-9.269c-7.96 0-11.86-7.095-11.86-16.076 0-8.98 3.9-16.172 11.86-16.172 7.83 0 11.72 7.192 11.72 16.172 0 8.981-3.89 16.076-11.72 16.076zm33.27 8.31h11.57v-29.851c0-6.04 4.03-10.131 9.02-10.131 4.89 0 8.24 3.292 8.24 8.341V309h11.35v-30.618c0-5.529 3.29-9.364 8.88-9.364 4.67 0 8.38 2.748 8.38 8.821V309h11.6v-32.951c0-10.962-6.33-16.779-15.34-16.779-7.13 0-12.56 3.516-14.74 8.981h-.51c-1.88-5.561-6.65-8.981-13.26-8.981-6.59 0-11.51 3.388-13.55 8.981h-.58v-8.342h-11.06V309zm119.58-36.115c-1.6-8.31-8.25-13.615-19.76-13.615-11.82 0-19.88 5.817-19.84 14.893-.04 7.159 4.38 11.89 13.8 13.839l8.38 1.758c4.5.991 6.61 2.812 6.61 5.593 0 3.356-3.64 5.881-9.14 5.881-5.3 0-8.75-2.301-9.75-6.712l-11.28 1.087c1.44 9.012 9.02 14.35 21.06 14.35 12.28 0 20.94-6.36 20.97-15.661-.03-6.999-4.54-11.282-13.81-13.295l-8.37-1.79c-4.99-1.119-6.97-2.844-6.94-5.689-.03-3.324 3.65-5.625 8.47-5.625 5.34 0 8.15 2.909 9.05 6.137l10.55-1.151z" fill="#CCC"/><path d="M66.158 183.604c8.398 0 13.316-6.854 13.316-18.768 0-11.825-4.989-18.697-13.316-18.697-8.346 0-13.317 6.854-13.335 18.697 0 11.896 4.919 18.75 13.335 18.768zm0-4.741c-4.919 0-7.884-4.936-7.884-14.027.018-9.055 2.983-14.045 7.884-14.045 4.882 0 7.865 4.99 7.865 14.045 0 9.091-2.965 14.027-7.865 14.027zm33.411-32.227h-5.344l-9.073 5.931v5.255l8.7-5.681h.213V183h5.504v-36.364z" fill="#000"/></svg>