<svg width="2480" height="465" fill="none" xmlns="http://www.w3.org/2000/svg"><path fill="#fff" d="M0 0h2480v465H0z"/><path d="M2391.85 243.545h-9.53v47.973l-18.18-18.186-6.52 6.584 29.47 29.468 29.53-29.468-6.65-6.584-18.12 18.186v-47.973zM64.862 309l5.4-16.14h24.61l5.433 16.14h12.657l-23.076-65.455H75.25L52.205 309h12.657zm8.597-25.664l8.853-26.367h.511l8.853 26.367H73.46zm85.621-10.451c-1.598-8.31-8.245-13.615-19.751-13.615-11.825 0-19.879 5.817-19.847 14.893-.032 7.159 4.378 11.89 13.806 13.839l8.374 1.758c4.506.991 6.616 2.812 6.616 5.593 0 3.356-3.644 5.881-9.141 5.881-5.305 0-8.757-2.301-9.748-6.712l-11.282 1.087c1.438 9.012 9.013 14.35 21.062 14.35 12.273 0 20.934-6.36 20.966-15.661-.032-6.999-4.538-11.282-13.807-13.295l-8.373-1.79c-4.986-1.119-6.968-2.844-6.936-5.689-.032-3.324 3.644-5.625 8.47-5.625 5.337 0 8.149 2.909 9.044 6.137l10.547-1.151zm17.786 54.524c9.013 0 14.222-4.634 17.003-12.464l19.719-54.972-12.368-.064-11.346 37.074h-.511l-11.314-37.074h-12.273l17.802 50.114-.991 2.652c-2.141 5.593-5.529 5.977-10.579 4.507l-2.684 9.013c1.566.639 4.378 1.214 7.542 1.214zm56.322-47.173c0-7.095 4.283-11.186 10.387-11.186 5.977 0 9.556 3.931 9.556 10.483V309h11.57v-31.257c.032-11.761-6.68-18.473-16.811-18.473-7.351 0-12.401 3.516-14.638 8.981h-.575v-8.342h-11.059V309h11.57v-28.764zm64.688 29.723c12.336 0 20.198-7.319 21.029-17.738h-11.058c-.991 5.273-4.794 8.31-9.876 8.31-7.223 0-11.889-6.041-11.889-16.076 0-9.908 4.762-15.853 11.889-15.853 5.561 0 8.981 3.58 9.876 8.31h11.058c-.799-10.643-9.108-17.642-21.093-17.642-14.382 0-23.459 10.387-23.459 25.376 0 14.862 8.853 25.313 23.523 25.313zm66.98.032c7.703 0 12.305-3.612 14.414-7.735h.384V309h11.122v-32.855c0-12.976-10.579-16.875-19.943-16.875-10.323 0-18.25 4.602-20.806 13.551l10.802 1.534c1.151-3.356 4.411-6.232 10.068-6.232 5.369 0 8.309 2.748 8.309 7.574v.192c0 3.324-3.483 3.484-12.145 4.411-9.524 1.022-18.632 3.867-18.632 14.925 0 9.652 7.063 14.766 16.427 14.766zm3.004-8.502c-4.826 0-8.277-2.205-8.277-6.456 0-4.442 3.867-6.296 9.044-7.031 3.037-.415 9.109-1.182 10.611-2.397v5.785c0 5.465-4.41 10.099-11.378 10.099zm55.963 8.47c12.336 0 20.199-7.319 21.03-17.738h-11.059c-.99 5.273-4.794 8.31-9.875 8.31-7.223 0-11.89-6.041-11.89-16.076 0-9.908 4.763-15.853 11.89-15.853 5.561 0 8.981 3.58 9.875 8.31h11.059c-.799-10.643-9.109-17.642-21.094-17.642-14.382 0-23.459 10.387-23.459 25.376 0 14.862 8.853 25.313 23.523 25.313zm55.043-50.05h-9.684v-11.761h-11.569v11.761h-6.968v8.949h6.968v27.294c-.064 9.236 6.647 13.775 15.341 13.519 3.292-.096 5.561-.735 6.807-1.15l-1.949-9.045c-.64.16-1.95.447-3.388.447-2.909 0-5.242-1.022-5.242-5.689v-25.376h9.684v-8.949zM488.542 309h11.57v-49.091h-11.57V309zm5.817-56.058c3.675 0 6.68-2.813 6.68-6.264 0-3.484-3.005-6.297-6.68-6.297-3.707 0-6.712 2.813-6.712 6.297 0 3.451 3.005 6.264 6.712 6.264zm39.063 57.017c14.383 0 23.523-10.132 23.523-25.313 0-15.213-9.14-25.376-23.523-25.376-14.382 0-23.522 10.163-23.522 25.376 0 15.181 9.14 25.313 23.522 25.313zm.064-9.269c-7.958 0-11.857-7.095-11.857-16.076 0-8.98 3.899-16.172 11.857-16.172 7.831 0 11.73 7.192 11.73 16.172 0 8.981-3.899 16.076-11.73 16.076zm44.849-20.454c0-7.095 4.282-11.186 10.387-11.186 5.976 0 9.556 3.931 9.556 10.483V309h11.569v-31.257c.032-11.761-6.679-18.473-16.811-18.473-7.351 0-12.4 3.516-14.638 8.981h-.575v-8.342h-11.058V309h11.57v-28.764zm82.073-7.351c-1.598-8.31-8.245-13.615-19.751-13.615-11.825 0-19.879 5.817-19.847 14.893-.032 7.159 4.378 11.89 13.806 13.839l8.374 1.758c4.506.991 6.616 2.812 6.616 5.593 0 3.356-3.644 5.881-9.141 5.881-5.305 0-8.757-2.301-9.748-6.712l-11.282 1.087c1.439 9.012 9.013 14.35 21.062 14.35 12.273 0 20.934-6.36 20.966-15.661-.032-6.999-4.538-11.282-13.807-13.295l-8.373-1.79c-4.986-1.119-6.968-2.844-6.936-5.689-.032-3.324 3.644-5.625 8.47-5.625 5.337 0 8.15 2.909 9.045 6.137l10.546-1.151z" fill="#CCC"/><rect x="737.5" y="222.5" width="716" height="121" rx="28.5" fill="#fff" fill-opacity=".5" stroke="#C4C4C4" stroke-width="3"/><path d="M817.102 307v-25.859c0-4.349-1.615-6.524-4.844-6.524-1.615 0-3.164.651-4.649 1.953-1.458 1.302-3.007 3.073-4.648 5.313V307h-9.531v-39.688h8.242l.234 5.86a29.12 29.12 0 012.5-2.774 14.698 14.698 0 012.852-2.109 13.006 13.006 0 013.281-1.367c1.172-.313 2.487-.469 3.945-.469 2.032 0 3.802.339 5.313 1.016 1.51.651 2.773 1.588 3.789 2.812 1.016 1.198 1.771 2.657 2.266 4.375.52 1.693.781 3.594.781 5.703V307h-9.531zm54.882-22.891c0 .651-.026 1.498-.078 2.539a48.688 48.688 0 01-.156 2.93h-26.094c0 1.745.261 3.281.782 4.61.546 1.328 1.302 2.447 2.265 3.359.99.885 2.162 1.562 3.516 2.031 1.38.469 2.903.703 4.57.703 1.927 0 3.984-.143 6.172-.429a51.14 51.14 0 006.875-1.485v7.578a41.958 41.958 0 01-3.32.782 78.388 78.388 0 01-3.672.625c-1.25.182-2.513.312-3.789.39a45.704 45.704 0 01-3.711.156c-3.021 0-5.729-.429-8.125-1.289-2.396-.859-4.427-2.122-6.094-3.789-1.667-1.692-2.943-3.776-3.828-6.25-.886-2.474-1.328-5.338-1.328-8.593 0-3.23.442-6.159 1.328-8.789.885-2.657 2.135-4.922 3.75-6.797a16.194 16.194 0 015.859-4.375c2.318-1.042 4.896-1.563 7.735-1.563 2.812 0 5.299.443 7.461 1.328 2.161.86 3.971 2.071 5.429 3.633 1.459 1.563 2.565 3.425 3.321 5.586.755 2.161 1.132 4.531 1.132 7.109zm-9.687-1.367c.026-1.562-.169-2.916-.586-4.062-.417-1.172-.99-2.136-1.719-2.891a6.532 6.532 0 00-2.5-1.68c-.937-.364-1.953-.547-3.047-.547-2.396 0-4.362.808-5.898 2.422-1.537 1.589-2.448 3.842-2.735 6.758h16.485zm53.672 1.367c0 .651-.026 1.498-.078 2.539a48.654 48.654 0 01-.157 2.93h-26.093c0 1.745.26 3.281.781 4.61.547 1.328 1.302 2.447 2.266 3.359.989.885 2.161 1.562 3.515 2.031 1.38.469 2.904.703 4.57.703 1.928 0 3.985-.143 6.172-.429a51.073 51.073 0 006.875-1.485v7.578a41.853 41.853 0 01-3.32.782 78.388 78.388 0 01-3.672.625c-1.25.182-2.513.312-3.789.39a45.704 45.704 0 01-3.711.156c-3.021 0-5.729-.429-8.125-1.289-2.396-.859-4.427-2.122-6.094-3.789-1.666-1.692-2.942-3.776-3.828-6.25-.885-2.474-1.328-5.338-1.328-8.593 0-3.23.443-6.159 1.328-8.789.886-2.657 2.136-4.922 3.75-6.797a16.197 16.197 0 015.86-4.375c2.317-1.042 4.895-1.563 7.734-1.563 2.813 0 5.299.443 7.461 1.328 2.161.86 3.971 2.071 5.43 3.633 1.458 1.563 2.565 3.425 3.32 5.586.755 2.161 1.133 4.531 1.133 7.109zm-9.688-1.367c.026-1.562-.169-2.916-.586-4.062-.416-1.172-.989-2.136-1.718-2.891a6.547 6.547 0 00-2.5-1.68 8.352 8.352 0 00-3.047-.547c-2.396 0-4.362.808-5.899 2.422-1.536 1.589-2.448 3.842-2.734 6.758h16.484zM950.344 307l-.235-5.859a29.383 29.383 0 01-2.578 2.773 16.021 16.021 0 01-2.851 2.148 14.007 14.007 0 01-3.282 1.329c-1.145.338-2.421.507-3.828.507-2.343 0-4.427-.468-6.25-1.406-1.823-.937-3.359-2.265-4.609-3.984-1.224-1.745-2.162-3.854-2.813-6.328-.651-2.474-.976-5.235-.976-8.282 0-3.645.508-6.796 1.523-9.453 1.042-2.682 2.474-4.896 4.297-6.64 1.823-1.771 3.985-3.073 6.485-3.907 2.5-.859 5.221-1.289 8.164-1.289.989 0 1.979.065 2.968.196a20.87 20.87 0 012.696.507v-15.507h9.531V307h-8.242zm-17.422-19.531c0 2.187.143 4.062.43 5.625.312 1.536.755 2.799 1.328 3.789.599.989 1.328 1.719 2.187 2.187.86.443 1.836.664 2.93.664 1.614 0 3.151-.651 4.609-1.953 1.459-1.302 3.008-3.086 4.649-5.351v-17.344c-.756-.287-1.693-.521-2.813-.703a20.19 20.19 0 00-3.32-.274c-1.537 0-2.917.313-4.141.938-1.224.625-2.278 1.51-3.164 2.656-.859 1.146-1.523 2.552-1.992 4.219-.469 1.64-.703 3.489-.703 5.547zm69.178 7.851c0 2.266-.51 4.206-1.52 5.821-.991 1.588-2.32 2.89-3.986 3.906-1.641.989-3.516 1.706-5.625 2.148a29.087 29.087 0 01-6.407.703c-2.916 0-5.546-.143-7.89-.429a50.352 50.352 0 01-6.641-1.172v-8.594c2.448 1.016 4.883 1.758 7.305 2.227 2.448.442 4.753.664 6.914.664 2.5 0 4.362-.391 5.586-1.172 1.25-.807 1.875-1.849 1.875-3.125 0-.599-.13-1.146-.391-1.641-.26-.495-.755-.963-1.484-1.406-.703-.469-1.706-.938-3.008-1.406-1.302-.495-3.008-1.042-5.117-1.641-1.953-.547-3.672-1.159-5.156-1.836-1.459-.703-2.67-1.523-3.633-2.461a9.386 9.386 0 01-2.188-3.242c-.468-1.25-.703-2.708-.703-4.375 0-1.615.365-3.138 1.094-4.57.729-1.433 1.81-2.683 3.242-3.75 1.459-1.094 3.268-1.953 5.43-2.578 2.161-.625 4.687-.938 7.578-.938 2.5 0 4.714.13 6.641.391 1.927.26 3.632.547 5.117.859v7.774c-2.266-.73-4.401-1.237-6.406-1.524a37.847 37.847 0 00-5.899-.469c-1.953 0-3.529.352-4.726 1.055-1.172.703-1.758 1.68-1.758 2.93 0 .599.117 1.133.351 1.601.235.469.69.925 1.367 1.368.704.442 1.667.911 2.891 1.406 1.25.468 2.891.989 4.922 1.562 2.292.651 4.219 1.354 5.781 2.11 1.563.729 2.813 1.562 3.75 2.5.964.937 1.654 2.005 2.074 3.203.41 1.198.62 2.565.62 4.101zm87.97 0c0 2.266-.51 4.206-1.52 5.821-.99 1.588-2.32 2.89-3.99 3.906-1.64.989-3.51 1.706-5.62 2.148a29.14 29.14 0 01-6.41.703c-2.92 0-5.55-.143-7.89-.429a50.336 50.336 0 01-6.64-1.172v-8.594c2.45 1.016 4.88 1.758 7.3 2.227 2.45.442 4.76.664 6.92.664 2.5 0 4.36-.391 5.58-1.172 1.25-.807 1.88-1.849 1.88-3.125 0-.599-.13-1.146-.39-1.641-.26-.495-.76-.963-1.49-1.406-.7-.469-1.7-.938-3-1.406-1.31-.495-3.01-1.042-5.12-1.641-1.95-.547-3.67-1.159-5.16-1.836-1.45-.703-2.67-1.523-3.63-2.461a9.518 9.518 0 01-2.19-3.242c-.47-1.25-.7-2.708-.7-4.375 0-1.615.36-3.138 1.09-4.57.73-1.433 1.81-2.683 3.25-3.75 1.45-1.094 3.26-1.953 5.43-2.578 2.16-.625 4.68-.938 7.57-.938 2.5 0 4.72.13 6.64.391 1.93.26 3.64.547 5.12.859v7.774c-2.26-.73-4.4-1.237-6.4-1.524a37.888 37.888 0 00-5.9-.469c-1.96 0-3.53.352-4.73 1.055-1.17.703-1.76 1.68-1.76 2.93 0 .599.12 1.133.35 1.601.24.469.69.925 1.37 1.368.7.442 1.67.911 2.89 1.406 1.25.468 2.89.989 4.92 1.562 2.3.651 4.22 1.354 5.78 2.11 1.57.729 2.82 1.562 3.76 2.5.96.937 1.65 2.005 2.07 3.203.41 1.198.62 2.565.62 4.101zm20.7-28.008v25.86c0 2.161.41 3.802 1.21 4.922.81 1.094 2.04 1.64 3.68 1.64 1.58 0 3.11-.651 4.57-1.953 1.48-1.328 3.04-3.112 4.68-5.351v-25.118h9.54V307h-8.25l-.23-5.859a32.507 32.507 0 01-2.54 2.773c-.86.833-1.8 1.55-2.81 2.148-.99.573-2.09 1.016-3.28 1.329-1.18.338-2.48.507-3.91.507-2.03 0-3.82-.325-5.35-.976-1.51-.677-2.78-1.628-3.79-2.852-1.02-1.224-1.78-2.682-2.31-4.375-.49-1.718-.74-3.633-.74-5.742v-26.641h9.53zm67.27 28.008c0 2.266-.51 4.206-1.52 5.821-.99 1.588-2.32 2.89-3.99 3.906-1.64.989-3.51 1.706-5.62 2.148a29.14 29.14 0 01-6.41.703c-2.92 0-5.55-.143-7.89-.429a50.336 50.336 0 01-6.64-1.172v-8.594c2.45 1.016 4.88 1.758 7.3 2.227 2.45.442 4.76.664 6.92.664 2.5 0 4.36-.391 5.58-1.172 1.25-.807 1.88-1.849 1.88-3.125 0-.599-.13-1.146-.39-1.641-.26-.495-.76-.963-1.49-1.406-.7-.469-1.7-.938-3-1.406-1.31-.495-3.01-1.042-5.12-1.641-1.95-.547-3.67-1.159-5.16-1.836-1.46-.703-2.67-1.523-3.63-2.461a9.518 9.518 0 01-2.19-3.242c-.47-1.25-.7-2.708-.7-4.375 0-1.615.36-3.138 1.09-4.57.73-1.433 1.81-2.683 3.24-3.75 1.46-1.094 3.27-1.953 5.43-2.578 2.17-.625 4.69-.938 7.58-.938 2.5 0 4.72.13 6.64.391 1.93.26 3.64.547 5.12.859v7.774c-2.27-.73-4.4-1.237-6.41-1.524a37.762 37.762 0 00-5.89-.469c-1.96 0-3.53.352-4.73 1.055-1.17.703-1.76 1.68-1.76 2.93 0 .599.12 1.133.35 1.601.24.469.69.925 1.37 1.368.7.442 1.67.911 2.89 1.406 1.25.468 2.89.989 4.92 1.562 2.29.651 4.22 1.354 5.78 2.11 1.57.729 2.82 1.562 3.75 2.5.97.937 1.66 2.005 2.07 3.203.42 1.198.63 2.565.63 4.101zm46.95-8.867c0 3.646-.52 6.797-1.56 9.453-1.02 2.656-2.45 4.87-4.3 6.641-1.82 1.745-3.98 3.047-6.48 3.906-2.5.833-5.22 1.25-8.17 1.25-.99 0-1.97-.065-2.96-.195s-1.89-.3-2.7-.508v15.508h-9.53v-55.196h8.24l.24 5.86c.8-1.016 1.64-1.94 2.5-2.774a14.39 14.39 0 012.85-2.109 12.953 12.953 0 013.28-1.367c1.17-.313 2.49-.469 3.94-.469 2.35 0 4.43.469 6.25 1.406 1.83.938 3.35 2.279 4.57 4.024 1.25 1.719 2.2 3.815 2.86 6.289.65 2.448.97 5.208.97 8.281zm-10 .391c0-2.188-.15-4.05-.47-5.586-.31-1.537-.76-2.8-1.36-3.789-.58-.99-1.29-1.706-2.15-2.149-.84-.468-1.8-.703-2.89-.703-1.62 0-3.17.651-4.65 1.953-1.46 1.302-3.01 3.073-4.65 5.313v17.344c.76.286 1.68.52 2.77.703 1.12.182 2.26.273 3.4.273 1.51 0 2.88-.312 4.1-.937a8.898 8.898 0 003.17-2.657c.88-1.145 1.56-2.539 2.03-4.179.47-1.667.7-3.529.7-5.586zm52.85-2.735c0 .651-.02 1.498-.07 2.539a50.25 50.25 0 01-.16 2.93h-26.09c0 1.745.26 3.281.78 4.61.54 1.328 1.3 2.447 2.26 3.359.99.885 2.16 1.562 3.52 2.031 1.38.469 2.9.703 4.57.703 1.93 0 3.98-.143 6.17-.429 2.21-.313 4.51-.808 6.88-1.485v7.578c-1.02.287-2.13.547-3.32.782-1.2.234-2.43.442-3.68.625-1.25.182-2.51.312-3.79.39a45.53 45.53 0 01-3.71.156c-3.02 0-5.73-.429-8.12-1.289-2.4-.859-4.43-2.122-6.1-3.789-1.66-1.692-2.94-3.776-3.82-6.25-.89-2.474-1.33-5.338-1.33-8.593 0-3.23.44-6.159 1.33-8.789.88-2.657 2.13-4.922 3.75-6.797a16.088 16.088 0 015.86-4.375c2.31-1.042 4.89-1.563 7.73-1.563 2.81 0 5.3.443 7.46 1.328 2.16.86 3.97 2.071 5.43 3.633 1.46 1.563 2.57 3.425 3.32 5.586.76 2.161 1.13 4.531 1.13 7.109zm-9.68-1.367c.02-1.562-.17-2.916-.59-4.062-.42-1.172-.99-2.136-1.72-2.891a6.465 6.465 0 00-2.5-1.68c-.94-.364-1.95-.547-3.05-.547-2.39 0-4.36.808-5.89 2.422-1.54 1.589-2.45 3.842-2.74 6.758h16.49zM1300.93 307v-25.859c0-4.349-1.61-6.524-4.84-6.524-1.62 0-3.17.651-4.65 1.953-1.46 1.302-3.01 3.073-4.65 5.313V307h-9.53v-39.688h8.24l.23 5.86c.81-1.016 1.65-1.94 2.5-2.774.89-.833 1.84-1.536 2.86-2.109a12.953 12.953 0 013.28-1.367c1.17-.313 2.48-.469 3.94-.469 2.03 0 3.8.339 5.31 1.016 1.52.651 2.78 1.588 3.79 2.812 1.02 1.198 1.77 2.657 2.27 4.375.52 1.693.78 3.594.78 5.703V307h-9.53zm53.05-11.68c0 2.266-.51 4.206-1.53 5.821-.99 1.588-2.31 2.89-3.98 3.906-1.64.989-3.52 1.706-5.63 2.148a29.05 29.05 0 01-6.4.703c-2.92 0-5.55-.143-7.89-.429a50.046 50.046 0 01-6.64-1.172v-8.594a37.615 37.615 0 007.3 2.227c2.45.442 4.75.664 6.91.664 2.5 0 4.37-.391 5.59-1.172 1.25-.807 1.88-1.849 1.88-3.125 0-.599-.13-1.146-.39-1.641-.27-.495-.76-.963-1.49-1.406-.7-.469-1.7-.938-3.01-1.406-1.3-.495-3-1.042-5.11-1.641-1.96-.547-3.68-1.159-5.16-1.836-1.46-.703-2.67-1.523-3.63-2.461a9.242 9.242 0 01-2.19-3.242c-.47-1.25-.7-2.708-.7-4.375 0-1.615.36-3.138 1.09-4.57.73-1.433 1.81-2.683 3.24-3.75 1.46-1.094 3.27-1.953 5.43-2.578 2.16-.625 4.69-.938 7.58-.938 2.5 0 4.71.13 6.64.391 1.93.26 3.63.547 5.12.859v7.774c-2.27-.73-4.4-1.237-6.41-1.524a37.792 37.792 0 00-5.9-.469c-1.95 0-3.53.352-4.72 1.055-1.18.703-1.76 1.68-1.76 2.93 0 .599.12 1.133.35 1.601.23.469.69.925 1.37 1.368.7.442 1.66.911 2.89 1.406 1.25.468 2.89.989 4.92 1.562 2.29.651 4.22 1.354 5.78 2.11 1.56.729 2.81 1.562 3.75 2.5.96.937 1.65 2.005 2.07 3.203.42 1.198.63 2.565.63 4.101zm45.82-11.211c0 .651-.03 1.498-.08 2.539a50.25 50.25 0 01-.16 2.93h-26.09c0 1.745.26 3.281.78 4.61.55 1.328 1.3 2.447 2.27 3.359.99.885 2.16 1.562 3.51 2.031 1.38.469 2.9.703 4.57.703 1.93 0 3.99-.143 6.17-.429 2.22-.313 4.51-.808 6.88-1.485v7.578c-1.02.287-2.12.547-3.32.782-1.2.234-2.42.442-3.67.625-1.25.182-2.52.312-3.79.39-1.28.104-2.52.156-3.71.156-3.02 0-5.73-.429-8.13-1.289-2.39-.859-4.43-2.122-6.09-3.789-1.67-1.692-2.95-3.776-3.83-6.25-.89-2.474-1.33-5.338-1.33-8.593 0-3.23.44-6.159 1.33-8.789.88-2.657 2.13-4.922 3.75-6.797a16.172 16.172 0 015.86-4.375c2.32-1.042 4.89-1.563 7.73-1.563 2.82 0 5.3.443 7.46 1.328 2.17.86 3.98 2.071 5.43 3.633 1.46 1.563 2.57 3.425 3.32 5.586.76 2.161 1.14 4.531 1.14 7.109zm-9.69-1.367c.03-1.562-.17-2.916-.59-4.062-.41-1.172-.99-2.136-1.72-2.891a6.465 6.465 0 00-2.5-1.68c-.93-.364-1.95-.547-3.04-.547-2.4 0-4.36.808-5.9 2.422-1.54 1.589-2.45 3.842-2.74 6.758h16.49z" fill="#CCC"/><path d="M66.158 183.604c8.398 0 13.316-6.854 13.316-18.768 0-11.825-4.989-18.697-13.316-18.697-8.346 0-13.317 6.854-13.335 18.697 0 11.896 4.919 18.75 13.335 18.768zm0-4.741c-4.919 0-7.884-4.936-7.884-14.027.018-9.055 2.983-14.045 7.884-14.045 4.882 0 7.865 4.99 7.865 14.045 0 9.091-2.965 14.027-7.865 14.027zm31.618 4.634c7.315 0 12.536-5.167 12.518-12.251.018-7.032-4.883-12.145-11.506-12.145-2.699 0-5.202 1.03-6.623 2.415h-.213l1.154-10.174h15.43v-4.706H88.543l-2.042 18.324 5.025.746c1.367-1.225 3.818-2.06 6.02-2.06 4.314.036 7.439 3.267 7.439 7.706 0 4.368-3.036 7.529-7.209 7.529-3.516 0-6.303-2.238-6.587-5.363h-5.327c.213 5.789 5.238 9.979 11.914 9.979z" fill="#000"/></svg>