<svg width="2480" height="465" fill="none" xmlns="http://www.w3.org/2000/svg"><path fill="#fff" d="M0 0h2480v465H0z"/><path d="M2391.85 243.545h-9.53v47.973l-18.18-18.186-6.52 6.584 29.47 29.468 29.53-29.468-6.65-6.584-18.12 18.186v-47.973zm-2339.869 0l23.81 41.037V309h11.826v-24.418l23.811-41.037H98.036l-16.012 28.956h-.64l-16.011-28.956H51.98zm79.605 66.414c14.383 0 23.523-10.132 23.523-25.313 0-15.213-9.14-25.376-23.523-25.376-14.382 0-23.522 10.163-23.522 25.376 0 15.181 9.14 25.313 23.522 25.313zm.064-9.269c-7.958 0-11.857-7.095-11.857-16.076 0-8.98 3.899-16.172 11.857-16.172 7.831 0 11.73 7.192 11.73 16.172 0 8.981-3.899 16.076-11.73 16.076zm64.568-12.336c0 7.478-5.337 11.186-10.451 11.186-5.561 0-9.268-3.931-9.268-10.164v-29.467h-11.57v31.257c0 11.794 6.712 18.473 16.364 18.473 7.35 0 12.528-3.867 14.765-9.364h.512V309h11.218v-49.091h-11.57v28.445zm67.204 21.605c12.337 0 20.199-7.319 21.03-17.738h-11.058c-.991 5.273-4.794 8.31-9.876 8.31-7.223 0-11.889-6.041-11.889-16.076 0-9.908 4.762-15.853 11.889-15.853 5.561 0 8.981 3.58 9.876 8.31h11.058c-.799-10.643-9.108-17.642-21.094-17.642-14.382 0-23.458 10.387-23.458 25.376 0 14.862 8.853 25.313 23.522 25.313zm44.657.032c7.702 0 12.305-3.612 14.414-7.735h.383V309h11.123v-32.855c0-12.976-10.579-16.875-19.944-16.875-10.323 0-18.249 4.602-20.806 13.551l10.803 1.534c1.15-3.356 4.41-6.232 10.067-6.232 5.37 0 8.31 2.748 8.31 7.574v.192c0 3.324-3.484 3.484-12.145 4.411-9.524 1.022-18.633 3.867-18.633 14.925 0 9.652 7.063 14.766 16.428 14.766zm3.004-8.502c-4.826 0-8.278-2.205-8.278-6.456 0-4.442 3.868-6.296 9.045-7.031 3.036-.415 9.109-1.182 10.611-2.397v5.785c0 5.465-4.411 10.099-11.378 10.099zm46.119-21.253c0-7.095 4.282-11.186 10.387-11.186 5.976 0 9.556 3.931 9.556 10.483V309h11.569v-31.257c.032-11.761-6.679-18.473-16.811-18.473-7.35 0-12.4 3.516-14.637 8.981h-.576v-8.342h-11.058V309h11.57v-28.764zm87.011 29.723c12.337 0 20.199-7.319 21.03-17.738h-11.058c-.991 5.273-4.794 8.31-9.876 8.31-7.223 0-11.889-6.041-11.889-16.076 0-9.908 4.762-15.853 11.889-15.853 5.561 0 8.981 3.58 9.876 8.31h11.058c-.799-10.643-9.108-17.642-21.093-17.642-14.383 0-23.459 10.387-23.459 25.376 0 14.862 8.853 25.313 23.522 25.313zm30.53-.959h11.57v-28.86c0-6.232 4.698-10.643 11.058-10.643 1.95 0 4.379.352 5.37.671v-10.642c-1.055-.192-2.877-.32-4.155-.32-5.625 0-10.323 3.196-12.113 8.885h-.512v-8.182h-11.218V309zm55.395.959c11.442 0 19.304-5.593 21.35-14.127l-10.803-1.214c-1.566 4.155-5.401 6.328-10.387 6.328-7.478 0-12.432-4.922-12.528-13.327h34.197v-3.548c0-17.227-10.355-24.801-22.436-24.801-14.062 0-23.235 10.323-23.235 25.472 0 15.405 9.045 25.217 23.842 25.217zm-12.336-30.139c.351-6.264 4.986-11.537 11.889-11.537 6.648 0 11.122 4.858 11.186 11.537h-23.075zm58.08 30.171c7.702 0 12.304-3.612 14.414-7.735h.383V309h11.122v-32.855c0-12.976-10.579-16.875-19.943-16.875-10.323 0-18.249 4.602-20.806 13.551l10.803 1.534c1.15-3.356 4.41-6.232 10.067-6.232 5.369 0 8.31 2.748 8.31 7.574v.192c0 3.324-3.484 3.484-12.145 4.411-9.524 1.022-18.633 3.867-18.633 14.925 0 9.652 7.063 14.766 16.428 14.766zm3.004-8.502c-4.826 0-8.278-2.205-8.278-6.456 0-4.442 3.867-6.296 9.045-7.031 3.036-.415 9.109-1.182 10.611-2.397v5.785c0 5.465-4.411 10.099-11.378 10.099zm59.062-41.58h-9.684v-11.761h-11.569v11.761h-6.968v8.949h6.968v27.294c-.064 9.236 6.648 13.775 15.341 13.519 3.292-.096 5.561-.735 6.807-1.15l-1.949-9.045c-.64.16-1.95.447-3.388.447-2.909 0-5.242-1.022-5.242-5.689v-25.376h9.684v-8.949zm30.882 50.05c11.442 0 19.304-5.593 21.349-14.127l-10.802-1.214c-1.566 4.155-5.402 6.328-10.387 6.328-7.479 0-12.433-4.922-12.529-13.327h34.198v-3.548c0-17.227-10.355-24.801-22.436-24.801-14.063 0-23.235 10.323-23.235 25.472 0 15.405 9.044 25.217 23.842 25.217zm-12.337-30.139c.352-6.264 4.986-11.537 11.889-11.537 6.648 0 11.123 4.858 11.187 11.537h-23.076zm80.404 30.171c7.703 0 12.305-3.612 14.414-7.735h.384V309h11.122v-32.855c0-12.976-10.579-16.875-19.943-16.875-10.323 0-18.25 4.602-20.806 13.551l10.802 1.534c1.151-3.356 4.411-6.232 10.068-6.232 5.369 0 8.309 2.748 8.309 7.574v.192c0 3.324-3.483 3.484-12.145 4.411-9.524 1.022-18.632 3.867-18.632 14.925 0 9.652 7.063 14.766 16.427 14.766zm3.004-8.502c-4.826 0-8.277-2.205-8.277-6.456 0-4.442 3.867-6.296 9.045-7.031 3.036-.415 9.108-1.182 10.61-2.397v5.785c0 5.465-4.41 10.099-11.378 10.099zM806.906 309h12.081l9.205-33.175h.671L838.067 309h12.049l13.903-49.091h-11.825l-8.502 34.325h-.479l-8.821-34.325h-11.666l-8.821 34.517h-.447l-8.629-34.517h-11.794L806.906 309zm65.191 0h11.57v-28.86c0-6.232 4.698-10.643 11.058-10.643 1.949 0 4.378.352 5.369.671v-10.642c-1.055-.192-2.876-.32-4.155-.32-5.625 0-10.323 3.196-12.113 8.885h-.511v-8.182h-11.218V309zm35.684 0h11.569v-49.091h-11.569V309zm5.816-56.058c3.676 0 6.68-2.813 6.68-6.264 0-3.484-3.004-6.297-6.68-6.297-3.707 0-6.711 2.813-6.711 6.297 0 3.451 3.004 6.264 6.711 6.264zm42.164 6.967h-9.684v-11.761h-11.57v11.761h-6.967v8.949h6.967v27.294c-.064 9.236 6.648 13.775 15.341 13.519 3.292-.096 5.561-.735 6.808-1.15l-1.95-9.045c-.639.16-1.949.447-3.388.447-2.908 0-5.241-1.022-5.241-5.689v-25.376h9.684v-8.949zm23.802 50.082c7.703 0 12.305-3.612 14.414-7.735h.384V309h11.119v-32.855c0-12.976-10.576-16.875-19.94-16.875-10.323 0-18.25 4.602-20.806 13.551l10.802 1.534c1.151-3.356 4.411-6.232 10.068-6.232 5.369 0 8.309 2.748 8.309 7.574v.192c0 3.324-3.483 3.484-12.145 4.411-9.524 1.022-18.632 3.867-18.632 14.925 0 9.652 7.063 14.766 16.427 14.766zm3.004-8.502c-4.826 0-8.277-2.205-8.277-6.456 0-4.442 3.867-6.296 9.045-7.031 3.036-.415 9.108-1.182 10.61-2.397v5.785c0 5.465-4.41 10.099-11.378 10.099zM1017.63 309h11.38v-7.734h.67c1.82 3.579 5.62 8.597 14.06 8.597 11.57 0 20.23-9.173 20.23-25.345 0-16.363-8.92-25.248-20.26-25.248-8.66 0-12.28 5.209-14.03 8.757h-.48v-24.482h-11.57V309zm11.34-24.545c0-9.525 4.09-15.693 11.54-15.693 7.7 0 11.67 6.552 11.67 15.693 0 9.204-4.03 15.916-11.67 15.916-7.38 0-11.54-6.392-11.54-15.916zm56.41-40.91h-11.57V309h11.57v-65.455zm33.63 66.414c11.44 0 19.3-5.593 21.35-14.127l-10.81-1.214c-1.56 4.155-5.4 6.328-10.38 6.328-7.48 0-12.44-4.922-12.53-13.327h34.19v-3.548c0-17.227-10.35-24.801-22.43-24.801-14.06 0-23.24 10.323-23.24 25.472 0 15.405 9.05 25.217 23.85 25.217zm-12.34-30.139c.35-6.264 4.98-11.537 11.89-11.537 6.65 0 11.12 4.858 11.18 11.537h-23.07zm84.49 30.043c8.44 0 12.24-5.018 14.07-8.597h.7V309h11.38v-65.455h-11.6v24.482h-.48c-1.76-3.548-5.37-8.757-14.03-8.757-11.35 0-20.27 8.885-20.27 25.248 0 16.172 8.66 25.345 20.23 25.345zm3.23-9.492c-7.64 0-11.66-6.712-11.66-15.916 0-9.141 3.96-15.693 11.66-15.693 7.45 0 11.54 6.168 11.54 15.693 0 9.524-4.16 15.916-11.54 15.916zm56.98 9.588c11.44 0 19.3-5.593 21.35-14.127l-10.8-1.214c-1.57 4.155-5.41 6.328-10.39 6.328-7.48 0-12.43-4.922-12.53-13.327h34.2v-3.548c0-17.227-10.36-24.801-22.44-24.801-14.06 0-23.23 10.323-23.23 25.472 0 15.405 9.04 25.217 23.84 25.217zm-12.34-30.139c.35-6.264 4.99-11.537 11.89-11.537 6.65 0 11.12 4.858 11.19 11.537h-23.08zm43.96 29.18h11.57v-28.86c0-6.232 4.69-10.643 11.05-10.643 1.95 0 4.38.352 5.37.671v-10.642c-1.05-.192-2.87-.32-4.15-.32-5.63 0-10.33 3.196-12.11 8.885h-.52v-8.182h-11.21V309zm35.68 0h11.57v-49.091h-11.57V309zm5.82-56.058c3.67 0 6.68-2.813 6.68-6.264 0-3.484-3.01-6.297-6.68-6.297-3.71 0-6.72 2.813-6.72 6.297 0 3.451 3.01 6.264 6.72 6.264zm61.5 6.967h-12.31l-11.31 36.467h-.51l-11.29-36.467h-12.33L1355.72 309h12.78l17.49-49.091zm28.06 50.05c11.45 0 19.31-5.593 21.35-14.127l-10.8-1.214c-1.56 4.155-5.4 6.328-10.39 6.328-7.47 0-12.43-4.922-12.52-13.327h34.19v-3.548c0-17.227-10.35-24.801-22.43-24.801-14.07 0-23.24 10.323-23.24 25.472 0 15.405 9.05 25.217 23.84 25.217zm-12.33-30.139c.35-6.264 4.98-11.537 11.89-11.537 6.64 0 11.12 4.858 11.18 11.537h-23.07zm62.17 30.043c8.44 0 12.24-5.018 14.06-8.597h.7V309h11.38v-65.455h-11.6v24.482h-.48c-1.76-3.548-5.37-8.757-14.03-8.757-11.35 0-20.26 8.885-20.26 25.248 0 16.172 8.66 25.345 20.23 25.345zm3.23-9.492c-7.64 0-11.67-6.712-11.67-15.916 0-9.141 3.96-15.693 11.67-15.693 7.44 0 11.53 6.168 11.53 15.693 0 9.524-4.15 15.916-11.53 15.916zm71.69 9.62c7.7 0 12.31-3.612 14.42-7.735h.38V309h11.12v-32.855c0-12.976-10.58-16.875-19.94-16.875-10.33 0-18.25 4.602-20.81 13.551l10.8 1.534c1.15-3.356 4.41-6.232 10.07-6.232 5.37 0 8.31 2.748 8.31 7.574v.192c0 3.324-3.48 3.484-12.14 4.411-9.53 1.022-18.64 3.867-18.64 14.925 0 9.652 7.07 14.766 16.43 14.766zm3.01-8.502c-4.83 0-8.28-2.205-8.28-6.456 0-4.442 3.87-6.296 9.04-7.031 3.04-.415 9.11-1.182 10.61-2.397v5.785c0 5.465-4.41 10.099-11.37 10.099zm59.06-41.58h-9.69v-11.761h-11.57v11.761h-6.96v8.949h6.96v27.294c-.06 9.236 6.65 13.775 15.35 13.519 3.29-.096 5.56-.735 6.8-1.15l-1.95-9.045c-.64.16-1.95.447-3.38.447-2.91 0-5.25-1.022-5.25-5.689v-25.376h9.69v-8.949zm30.56 50.05c14.38 0 23.52-10.132 23.52-25.313 0-15.213-9.14-25.376-23.52-25.376-14.38 0-23.52 10.163-23.52 25.376 0 15.181 9.14 25.313 23.52 25.313zm.06-9.269c-7.95 0-11.85-7.095-11.85-16.076 0-8.98 3.9-16.172 11.85-16.172 7.83 0 11.73 7.192 11.73 16.172 0 8.981-3.9 16.076-11.73 16.076zm33.28 8.31h11.57v-29.851c0-6.04 4.03-10.131 9.01-10.131 4.89 0 8.25 3.292 8.25 8.341V309h11.35v-30.618c0-5.529 3.29-9.364 8.88-9.364 4.67 0 8.38 2.748 8.38 8.821V309h11.6v-32.951c0-10.962-6.33-16.779-15.34-16.779-7.13 0-12.56 3.516-14.74 8.981h-.51c-1.89-5.561-6.65-8.981-13.26-8.981-6.59 0-11.51 3.388-13.55 8.981h-.58v-8.342h-11.06V309z" fill="#CCC"/><path d="M66.158 183.604c8.398 0 13.316-6.854 13.316-18.768 0-11.825-4.989-18.697-13.316-18.697-8.346 0-13.317 6.854-13.335 18.697 0 11.896 4.919 18.75 13.335 18.768zm0-4.741c-4.919 0-7.884-4.936-7.884-14.027.018-9.055 2.983-14.045 7.884-14.045 4.882 0 7.865 4.99 7.865 14.045 0 9.091-2.965 14.027-7.865 14.027zm32.275 4.634c7.422 0 12.873-4.439 12.855-10.476.018-4.598-2.77-7.901-7.599-8.647v-.284c3.799-.976 6.267-3.959 6.25-8.043.017-5.345-4.368-9.908-11.364-9.908-6.676 0-12.038 4.031-12.216 9.943h5.31c.123-3.338 3.266-5.362 6.835-5.362 3.711 0 6.144 2.255 6.126 5.611.018 3.516-2.806 5.824-6.836 5.824h-3.072v4.474h3.072c5.042 0 7.954 2.557 7.954 6.215 0 3.533-3.071 5.93-7.35 5.93-3.942 0-7.014-2.024-7.227-5.256h-5.575c.23 5.931 5.486 9.979 12.837 9.979z" fill="#000"/></svg>