<svg width="2480" height="465" fill="none" xmlns="http://www.w3.org/2000/svg"><path fill="#fff" d="M0 0h2480v465H0z"/><path d="M2391.85 243.545h-9.53v47.973l-18.18-18.186-6.52 6.584 29.47 29.468 29.53-29.468-6.65-6.584-18.12 18.186v-47.973zM70.23 309h11.698l13.136-45.927h.511L108.68 309h11.697l18.473-65.455h-12.752l-11.793 48.133h-.575l-12.625-48.133H89.503L76.91 291.646h-.607L64.51 243.545H51.758L70.23 309zm73.254 0h11.569v-28.86c0-6.232 4.698-10.643 11.059-10.643 1.949 0 4.378.352 5.369.671v-10.642c-1.055-.192-2.877-.32-4.155-.32-5.625 0-10.323 3.196-12.113 8.885h-.511v-8.182h-11.218V309zm35.683 0h11.57v-49.091h-11.57V309zm5.817-56.058c3.675 0 6.68-2.813 6.68-6.264 0-3.484-3.005-6.297-6.68-6.297-3.707 0-6.712 2.813-6.712 6.297 0 3.451 3.005 6.264 6.712 6.264zm42.164 6.967h-9.684v-11.761h-11.57v11.761h-6.967v8.949h6.967v27.294c-.064 9.236 6.648 13.775 15.341 13.519 3.292-.096 5.561-.735 6.807-1.15l-1.949-9.045c-.639.16-1.95.447-3.388.447-2.908 0-5.241-1.022-5.241-5.689v-25.376h9.684v-8.949zm30.881 50.05c11.442 0 19.304-5.593 21.35-14.127l-10.803-1.214c-1.566 4.155-5.401 6.328-10.387 6.328-7.479 0-12.433-4.922-12.528-13.327h34.197v-3.548c0-17.227-10.355-24.801-22.436-24.801-14.063 0-23.235 10.323-23.235 25.472 0 15.405 9.045 25.217 23.842 25.217zm-12.337-30.139c.352-6.264 4.986-11.537 11.89-11.537 6.647 0 11.122 4.858 11.186 11.537h-23.076zm73.709-2.844h-29.468v9.524h29.468v-9.524zm33.582 32.983c14.382 0 23.523-10.132 23.523-25.313 0-15.213-9.141-25.376-23.523-25.376s-23.523 10.163-23.523 25.376c0 15.181 9.141 25.313 23.523 25.313zm.064-9.269c-7.958 0-11.857-7.095-11.857-16.076 0-8.98 3.899-16.172 11.857-16.172 7.83 0 11.729 7.192 11.729 16.172 0 8.981-3.899 16.076-11.729 16.076zm44.848-20.454c0-7.095 4.283-11.186 10.387-11.186 5.977 0 9.556 3.931 9.556 10.483V309h11.57v-31.257c.032-11.761-6.68-18.473-16.811-18.473-7.351 0-12.401 3.516-14.638 8.981h-.575v-8.342h-11.059V309h11.57v-28.764zm54.844-36.691h-11.57V309h11.57v-65.455zm19.088 83.864c9.013 0 14.222-4.634 17.003-12.464l19.719-54.972-12.368-.064-11.346 37.074h-.511l-11.314-37.074h-12.273l17.802 50.114-.991 2.652c-2.141 5.593-5.529 5.977-10.579 4.507l-2.685 9.013c1.566.639 4.379 1.214 7.543 1.214zm81.203-17.418c7.702 0 12.305-3.612 14.414-7.735h.384V309h11.122v-32.855c0-12.976-10.579-16.875-19.943-16.875-10.324 0-18.25 4.602-20.807 13.551l10.803 1.534c1.151-3.356 4.411-6.232 10.067-6.232 5.37 0 8.31 2.748 8.31 7.574v.192c0 3.324-3.484 3.484-12.145 4.411-9.524 1.022-18.633 3.867-18.633 14.925 0 9.652 7.064 14.766 16.428 14.766zm3.004-8.502c-4.826 0-8.277-2.205-8.277-6.456 0-4.442 3.867-6.296 9.044-7.031 3.037-.415 9.109-1.182 10.611-2.397v5.785c0 5.465-4.41 10.099-11.378 10.099zm59.063-41.58h-9.684v-11.761h-11.57v11.761h-6.967v8.949h6.967v27.294c-.064 9.236 6.648 13.775 15.341 13.519 3.292-.096 5.561-.735 6.808-1.15l-1.95-9.045c-.639.16-1.949.447-3.388.447-2.908 0-5.241-1.022-5.241-5.689v-25.376h9.684v-8.949zm30.562 50.05c14.382 0 23.522-10.132 23.522-25.313 0-15.213-9.14-25.376-23.522-25.376-14.382 0-23.523 10.163-23.523 25.376 0 15.181 9.141 25.313 23.523 25.313zm.064-9.269c-7.958 0-11.858-7.095-11.858-16.076 0-8.98 3.9-16.172 11.858-16.172 7.83 0 11.729 7.192 11.729 16.172 0 8.981-3.899 16.076-11.729 16.076zm33.278 8.31h11.57v-29.851c0-6.04 4.027-10.131 9.013-10.131 4.89 0 8.245 3.292 8.245 8.341V309h11.346v-30.618c0-5.529 3.292-9.364 8.885-9.364 4.666 0 8.374 2.748 8.374 8.821V309h11.601v-32.951c0-10.962-6.328-16.779-15.341-16.779-7.127 0-12.56 3.516-14.733 8.981h-.512c-1.885-5.561-6.647-8.981-13.263-8.981-6.584 0-11.506 3.388-13.551 8.981h-.576v-8.342h-11.058V309zm119.571-36.115c-1.598-8.31-8.245-13.615-19.751-13.615-11.825 0-19.879 5.817-19.847 14.893-.032 7.159 4.378 11.89 13.807 13.839l8.373 1.758c4.507.991 6.616 2.812 6.616 5.593 0 3.356-3.644 5.881-9.141 5.881-5.305 0-8.757-2.301-9.748-6.712l-11.282 1.087c1.439 9.012 9.013 14.35 21.062 14.35 12.273 0 20.934-6.36 20.966-15.661-.032-6.999-4.538-11.282-13.807-13.295l-8.373-1.79c-4.986-1.119-6.968-2.844-6.936-5.689-.032-3.324 3.644-5.625 8.47-5.625 5.337 0 8.15 2.909 9.045 6.137l10.546-1.151z" fill="#CCC"/><path d="M66.158 183.604c8.398 0 13.316-6.854 13.316-18.768 0-11.825-4.989-18.697-13.316-18.697-8.346 0-13.317 6.854-13.335 18.697 0 11.896 4.919 18.75 13.335 18.768zm0-4.741c-4.919 0-7.884-4.936-7.884-14.027.018-9.055 2.983-14.045 7.884-14.045 4.882 0 7.865 4.99 7.865 14.045 0 9.091-2.965 14.027-7.865 14.027zm18.852-2.965h17.241V183h5.237v-7.102h4.812v-4.652h-4.812v-24.61h-6.764L85.01 171.459v4.439zm17.276-4.652H90.763v-.284l11.239-17.792h.284v18.076z" fill="#000"/></svg>