<svg width="2480" height="465" fill="none" xmlns="http://www.w3.org/2000/svg"><path fill="#fff" d="M0 0h2480v465H0z"/><path d="M2391.85 243.545h-9.53v47.973l-18.18-18.186-6.52 6.584 29.47 29.468 29.53-29.468-6.65-6.584-18.12 18.186v-47.973z" fill="#CCC"/><rect x="1024.5" y="223.5" width="716" height="121" rx="28.5" fill="#fff" fill-opacity=".5" stroke="#C4C4C4" stroke-width="3"/><path d="M1104.1 308v-25.859c0-4.349-1.61-6.524-4.84-6.524-1.62 0-3.17.651-4.65 1.953-1.46 1.302-3.01 3.073-4.65 5.313V308h-9.53v-39.688h8.24l.24 5.86c.8-1.016 1.64-1.94 2.5-2.774a14.39 14.39 0 012.85-2.109 12.953 12.953 0 013.28-1.367c1.17-.313 2.49-.469 3.94-.469 2.04 0 3.81.339 5.32 1.016a10.01 10.01 0 013.79 2.812c1.01 1.198 1.77 2.657 2.26 4.375.52 1.693.78 3.594.78 5.703V308h-9.53zm54.88-22.891c0 .651-.02 1.498-.07 2.539a50.25 50.25 0 01-.16 2.93h-26.09c0 1.745.26 3.281.78 4.61.54 1.328 1.3 2.447 2.26 3.359.99.885 2.16 1.562 3.52 2.031 1.38.469 2.9.703 4.57.703 1.93 0 3.98-.143 6.17-.429 2.21-.313 4.51-.808 6.88-1.485v7.578c-1.02.287-2.13.547-3.32.782-1.2.234-2.43.442-3.68.625-1.25.182-2.51.312-3.79.39a45.53 45.53 0 01-3.71.156c-3.02 0-5.73-.429-8.12-1.289-2.4-.859-4.43-2.122-6.1-3.789-1.66-1.692-2.94-3.776-3.82-6.25-.89-2.474-1.33-5.338-1.33-8.593 0-3.23.44-6.159 1.33-8.789.88-2.657 2.13-4.922 3.75-6.797a16.088 16.088 0 015.86-4.375c2.31-1.042 4.89-1.563 7.73-1.563 2.81 0 5.3.443 7.46 1.328 2.16.86 3.97 2.071 5.43 3.633 1.46 1.563 2.57 3.425 3.32 5.586.76 2.161 1.13 4.531 1.13 7.109zm-9.68-1.367c.02-1.562-.17-2.916-.59-4.062-.42-1.172-.99-2.136-1.72-2.891a6.465 6.465 0 00-2.5-1.68 8.333 8.333 0 00-3.04-.547c-2.4 0-4.37.808-5.9 2.422-1.54 1.589-2.45 3.842-2.74 6.758h16.49zm53.67 1.367c0 .651-.03 1.498-.08 2.539a50.25 50.25 0 01-.16 2.93h-26.09c0 1.745.26 3.281.78 4.61.55 1.328 1.3 2.447 2.27 3.359.99.885 2.16 1.562 3.51 2.031 1.38.469 2.91.703 4.57.703 1.93 0 3.99-.143 6.18-.429 2.21-.313 4.5-.808 6.87-1.485v7.578c-1.02.287-2.12.547-3.32.782-1.2.234-2.42.442-3.67.625-1.25.182-2.51.312-3.79.39-1.28.104-2.51.156-3.71.156-3.02 0-5.73-.429-8.13-1.289-2.39-.859-4.42-2.122-6.09-3.789-1.67-1.692-2.94-3.776-3.83-6.25-.88-2.474-1.33-5.338-1.33-8.593 0-3.23.45-6.159 1.33-8.789.89-2.657 2.14-4.922 3.75-6.797a16.257 16.257 0 015.86-4.375c2.32-1.042 4.9-1.563 7.73-1.563 2.82 0 5.3.443 7.47 1.328 2.16.86 3.97 2.071 5.43 3.633 1.45 1.563 2.56 3.425 3.32 5.586.75 2.161 1.13 4.531 1.13 7.109zm-9.69-1.367c.03-1.562-.17-2.916-.58-4.062-.42-1.172-.99-2.136-1.72-2.891a6.616 6.616 0 00-2.5-1.68 8.387 8.387 0 00-3.05-.547c-2.4 0-4.36.808-5.9 2.422-1.54 1.589-2.45 3.842-2.73 6.758h16.48zM1237.34 308l-.23-5.859a28.503 28.503 0 01-2.58 2.773c-.88.833-1.83 1.55-2.85 2.148a14.097 14.097 0 01-3.28 1.329c-1.15.338-2.42.507-3.83.507-2.34 0-4.43-.468-6.25-1.406-1.82-.937-3.36-2.265-4.61-3.984-1.22-1.745-2.16-3.854-2.81-6.328-.65-2.474-.98-5.235-.98-8.282 0-3.645.51-6.796 1.53-9.453 1.04-2.682 2.47-4.896 4.29-6.64 1.83-1.771 3.99-3.073 6.49-3.907 2.5-.859 5.22-1.289 8.16-1.289.99 0 1.98.065 2.97.196 1.02.13 1.91.299 2.69.507v-15.507h9.54V308h-8.25zm-17.42-19.531c0 2.187.15 4.062.43 5.625.31 1.536.76 2.799 1.33 3.789.6.989 1.33 1.719 2.19 2.187.86.443 1.83.664 2.93.664 1.61 0 3.15-.651 4.61-1.953 1.45-1.302 3-3.086 4.64-5.351v-17.344c-.75-.287-1.69-.521-2.81-.703-1.09-.182-2.2-.274-3.32-.274-1.53 0-2.91.313-4.14.938a9.311 9.311 0 00-3.16 2.656c-.86 1.146-1.53 2.552-2 4.219-.46 1.64-.7 3.489-.7 5.547zm69.18 7.851c0 2.266-.51 4.206-1.52 5.821-.99 1.588-2.32 2.89-3.99 3.906-1.64.989-3.51 1.706-5.62 2.148-2.08.469-4.22.703-6.41.703-2.91 0-5.54-.143-7.89-.429a50.336 50.336 0 01-6.64-1.172v-8.594c2.45 1.016 4.88 1.758 7.31 2.227 2.44.442 4.75.664 6.91.664 2.5 0 4.36-.391 5.59-1.172 1.25-.807 1.87-1.849 1.87-3.125 0-.599-.13-1.146-.39-1.641-.26-.495-.75-.963-1.48-1.406-.71-.469-1.71-.938-3.01-1.406-1.3-.495-3.01-1.042-5.12-1.641-1.95-.547-3.67-1.159-5.16-1.836-1.45-.703-2.66-1.523-3.63-2.461a9.518 9.518 0 01-2.19-3.242c-.46-1.25-.7-2.708-.7-4.375 0-1.615.37-3.138 1.09-4.57.73-1.433 1.81-2.683 3.25-3.75 1.46-1.094 3.27-1.953 5.43-2.578 2.16-.625 4.68-.938 7.58-.938 2.5 0 4.71.13 6.64.391 1.92.26 3.63.547 5.11.859v7.774c-2.26-.73-4.4-1.237-6.4-1.524a37.888 37.888 0 00-5.9-.469c-1.95 0-3.53.352-4.73 1.055-1.17.703-1.76 1.68-1.76 2.93 0 .599.12 1.133.36 1.601.23.469.69.925 1.36 1.368.71.442 1.67.911 2.89 1.406 1.25.468 2.89.989 4.93 1.562 2.29.651 4.21 1.354 5.78 2.11 1.56.729 2.81 1.562 3.75 2.5.96.937 1.65 2.005 2.07 3.203.41 1.198.62 2.565.62 4.101zm87.97 0c0 2.266-.51 4.206-1.52 5.821-.99 1.588-2.32 2.89-3.99 3.906-1.64.989-3.51 1.706-5.62 2.148a29.14 29.14 0 01-6.41.703c-2.92 0-5.55-.143-7.89-.429a50.336 50.336 0 01-6.64-1.172v-8.594c2.45 1.016 4.88 1.758 7.3 2.227 2.45.442 4.76.664 6.92.664 2.5 0 4.36-.391 5.58-1.172 1.25-.807 1.88-1.849 1.88-3.125 0-.599-.13-1.146-.39-1.641-.26-.495-.76-.963-1.49-1.406-.7-.469-1.7-.938-3-1.406-1.31-.495-3.01-1.042-5.12-1.641-1.95-.547-3.67-1.159-5.16-1.836-1.45-.703-2.67-1.523-3.63-2.461a9.518 9.518 0 01-2.19-3.242c-.47-1.25-.7-2.708-.7-4.375 0-1.615.36-3.138 1.09-4.57.73-1.433 1.81-2.683 3.25-3.75 1.45-1.094 3.26-1.953 5.43-2.578 2.16-.625 4.68-.938 7.57-.938 2.5 0 4.72.13 6.64.391 1.93.26 3.64.547 5.12.859v7.774c-2.26-.73-4.4-1.237-6.4-1.524a37.888 37.888 0 00-5.9-.469c-1.96 0-3.53.352-4.73 1.055-1.17.703-1.76 1.68-1.76 2.93 0 .599.12 1.133.35 1.601.24.469.69.925 1.37 1.368.7.442 1.67.911 2.89 1.406 1.25.468 2.89.989 4.92 1.562 2.3.651 4.22 1.354 5.78 2.11 1.57.729 2.82 1.562 3.76 2.5.96.937 1.65 2.005 2.07 3.203.41 1.198.62 2.565.62 4.101zm20.7-28.008v25.86c0 2.161.41 3.802 1.21 4.922.81 1.094 2.04 1.64 3.68 1.64 1.58 0 3.11-.651 4.57-1.953 1.48-1.328 3.04-3.112 4.68-5.351v-25.118h9.54V308h-8.25l-.23-5.859a32.507 32.507 0 01-2.54 2.773c-.86.833-1.8 1.55-2.81 2.148-.99.573-2.09 1.016-3.28 1.329-1.18.338-2.48.507-3.91.507-2.03 0-3.82-.325-5.35-.976-1.51-.677-2.78-1.628-3.79-2.852-1.02-1.224-1.78-2.682-2.31-4.375-.49-1.718-.74-3.633-.74-5.742v-26.641h9.53zm67.27 28.008c0 2.266-.51 4.206-1.52 5.821-.99 1.588-2.32 2.89-3.99 3.906-1.64.989-3.51 1.706-5.62 2.148a29.14 29.14 0 01-6.41.703c-2.92 0-5.55-.143-7.89-.429a50.336 50.336 0 01-6.64-1.172v-8.594c2.45 1.016 4.88 1.758 7.3 2.227 2.45.442 4.76.664 6.92.664 2.5 0 4.36-.391 5.58-1.172 1.25-.807 1.88-1.849 1.88-3.125 0-.599-.13-1.146-.39-1.641-.26-.495-.76-.963-1.49-1.406-.7-.469-1.7-.938-3-1.406-1.31-.495-3.01-1.042-5.12-1.641-1.95-.547-3.67-1.159-5.16-1.836-1.46-.703-2.67-1.523-3.63-2.461a9.518 9.518 0 01-2.19-3.242c-.47-1.25-.7-2.708-.7-4.375 0-1.615.36-3.138 1.09-4.57.73-1.433 1.81-2.683 3.24-3.75 1.46-1.094 3.27-1.953 5.43-2.578 2.17-.625 4.69-.938 7.58-.938 2.5 0 4.72.13 6.64.391 1.93.26 3.64.547 5.12.859v7.774c-2.27-.73-4.4-1.237-6.41-1.524a37.762 37.762 0 00-5.89-.469c-1.96 0-3.53.352-4.73 1.055-1.17.703-1.76 1.68-1.76 2.93 0 .599.12 1.133.35 1.601.24.469.69.925 1.37 1.368.7.442 1.67.911 2.89 1.406 1.25.468 2.89.989 4.92 1.562 2.29.651 4.22 1.354 5.78 2.11 1.57.729 2.82 1.562 3.75 2.5.97.937 1.66 2.005 2.07 3.203.42 1.198.63 2.565.63 4.101zm46.95-8.867c0 3.646-.52 6.797-1.56 9.453-1.02 2.656-2.45 4.87-4.3 6.641-1.82 1.745-3.98 3.047-6.48 3.906-2.5.833-5.22 1.25-8.17 1.25-.99 0-1.97-.065-2.96-.195s-1.89-.3-2.7-.508v15.508h-9.53v-55.196h8.24l.24 5.86c.8-1.016 1.64-1.94 2.5-2.774a14.39 14.39 0 012.85-2.109 12.953 12.953 0 013.28-1.367c1.17-.313 2.49-.469 3.94-.469 2.35 0 4.43.469 6.25 1.406 1.83.938 3.35 2.279 4.57 4.024 1.25 1.719 2.2 3.815 2.86 6.289.65 2.448.97 5.208.97 8.281zm-10 .391c0-2.188-.15-4.05-.47-5.586-.31-1.537-.76-2.8-1.36-3.789-.58-.99-1.29-1.706-2.15-2.149-.84-.468-1.8-.703-2.89-.703-1.62 0-3.17.651-4.65 1.953-1.46 1.302-3.01 3.073-4.65 5.313v17.344c.76.286 1.68.52 2.77.703 1.12.182 2.26.273 3.4.273 1.51 0 2.88-.312 4.1-.937a8.898 8.898 0 003.17-2.657c.88-1.145 1.56-2.539 2.03-4.179.47-1.667.7-3.529.7-5.586zm52.85-2.735c0 .651-.02 1.498-.07 2.539a50.25 50.25 0 01-.16 2.93h-26.09c0 1.745.26 3.281.78 4.61.54 1.328 1.3 2.447 2.26 3.359.99.885 2.16 1.562 3.52 2.031 1.38.469 2.9.703 4.57.703 1.93 0 3.98-.143 6.17-.429 2.21-.313 4.51-.808 6.88-1.485v7.578c-1.02.287-2.13.547-3.32.782-1.2.234-2.43.442-3.68.625-1.25.182-2.51.312-3.79.39a45.53 45.53 0 01-3.71.156c-3.02 0-5.73-.429-8.12-1.289-2.4-.859-4.43-2.122-6.1-3.789-1.66-1.692-2.94-3.776-3.82-6.25-.89-2.474-1.33-5.338-1.33-8.593 0-3.23.44-6.159 1.33-8.789.88-2.657 2.13-4.922 3.75-6.797a16.088 16.088 0 015.86-4.375c2.31-1.042 4.89-1.563 7.73-1.563 2.81 0 5.3.443 7.46 1.328 2.16.86 3.97 2.071 5.43 3.633 1.46 1.563 2.57 3.425 3.32 5.586.76 2.161 1.13 4.531 1.13 7.109zm-9.68-1.367c.02-1.562-.17-2.916-.59-4.062-.42-1.172-.99-2.136-1.72-2.891a6.465 6.465 0 00-2.5-1.68c-.94-.364-1.95-.547-3.05-.547-2.39 0-4.36.808-5.89 2.422-1.54 1.589-2.45 3.842-2.74 6.758h16.49zM1587.93 308v-25.859c0-4.349-1.61-6.524-4.84-6.524-1.62 0-3.17.651-4.65 1.953-1.46 1.302-3.01 3.073-4.65 5.313V308h-9.53v-39.688h8.24l.23 5.86c.81-1.016 1.65-1.94 2.5-2.774.89-.833 1.84-1.536 2.86-2.109a12.953 12.953 0 013.28-1.367c1.17-.313 2.48-.469 3.94-.469 2.03 0 3.8.339 5.31 1.016 1.52.651 2.78 1.588 3.79 2.812 1.02 1.198 1.77 2.657 2.27 4.375.52 1.693.78 3.594.78 5.703V308h-9.53zm53.05-11.68c0 2.266-.51 4.206-1.53 5.821-.99 1.588-2.31 2.89-3.98 3.906-1.64.989-3.52 1.706-5.63 2.148a29.05 29.05 0 01-6.4.703c-2.92 0-5.55-.143-7.89-.429a50.046 50.046 0 01-6.64-1.172v-8.594a37.615 37.615 0 007.3 2.227c2.45.442 4.75.664 6.91.664 2.5 0 4.37-.391 5.59-1.172 1.25-.807 1.88-1.849 1.88-3.125 0-.599-.13-1.146-.39-1.641-.27-.495-.76-.963-1.49-1.406-.7-.469-1.7-.938-3.01-1.406-1.3-.495-3-1.042-5.11-1.641-1.96-.547-3.68-1.159-5.16-1.836-1.46-.703-2.67-1.523-3.63-2.461a9.242 9.242 0 01-2.19-3.242c-.47-1.25-.7-2.708-.7-4.375 0-1.615.36-3.138 1.09-4.57.73-1.433 1.81-2.683 3.24-3.75 1.46-1.094 3.27-1.953 5.43-2.578 2.16-.625 4.69-.938 7.58-.938 2.5 0 4.71.13 6.64.391 1.93.26 3.63.547 5.12.859v7.774c-2.27-.73-4.4-1.237-6.41-1.524a37.792 37.792 0 00-5.9-.469c-1.95 0-3.53.352-4.72 1.055-1.18.703-1.76 1.68-1.76 2.93 0 .599.12 1.133.35 1.601.23.469.69.925 1.37 1.368.7.442 1.66.911 2.89 1.406 1.25.468 2.89.989 4.92 1.562 2.29.651 4.22 1.354 5.78 2.11 1.56.729 2.81 1.562 3.75 2.5.96.937 1.65 2.005 2.07 3.203.42 1.198.63 2.565.63 4.101zm45.82-11.211c0 .651-.03 1.498-.08 2.539a50.25 50.25 0 01-.16 2.93h-26.09c0 1.745.26 3.281.78 4.61.55 1.328 1.3 2.447 2.27 3.359.99.885 2.16 1.562 3.51 2.031 1.38.469 2.9.703 4.57.703 1.93 0 3.99-.143 6.17-.429 2.22-.313 4.51-.808 6.88-1.485v7.578c-1.02.287-2.12.547-3.32.782-1.2.234-2.42.442-3.67.625-1.25.182-2.52.312-3.79.39-1.28.104-2.52.156-3.71.156-3.02 0-5.73-.429-8.13-1.289-2.39-.859-4.43-2.122-6.09-3.789-1.67-1.692-2.95-3.776-3.83-6.25-.89-2.474-1.33-5.338-1.33-8.593 0-3.23.44-6.159 1.33-8.789.88-2.657 2.13-4.922 3.75-6.797a16.172 16.172 0 015.86-4.375c2.32-1.042 4.89-1.563 7.73-1.563 2.82 0 5.3.443 7.46 1.328 2.17.86 3.98 2.071 5.43 3.633 1.46 1.563 2.57 3.425 3.32 5.586.76 2.161 1.14 4.531 1.14 7.109zm-9.69-1.367c.03-1.562-.17-2.916-.59-4.062-.41-1.172-.99-2.136-1.72-2.891a6.465 6.465 0 00-2.5-1.68c-.93-.364-1.95-.547-3.04-.547-2.4 0-4.36.808-5.9 2.422-1.54 1.589-2.45 3.842-2.74 6.758h16.49zM78.636 309c19.944 0 31.769-12.337 31.769-32.791 0-20.391-11.826-32.664-31.321-32.664H56.456V309h22.18zm-10.323-10.259v-44.936h10.1c13.295 0 20.23 7.414 20.23 22.404 0 15.053-6.935 22.532-20.582 22.532h-9.748zm74.579 11.218c11.442 0 19.304-5.593 21.35-14.127l-10.803-1.214c-1.566 4.155-5.401 6.328-10.387 6.328-7.478 0-12.432-4.922-12.528-13.327h34.197v-3.548c0-17.227-10.355-24.801-22.436-24.801-14.062 0-23.235 10.323-23.235 25.472 0 15.405 9.045 25.217 23.842 25.217zm-12.336-30.139c.351-6.264 4.986-11.537 11.889-11.537 6.648 0 11.122 4.858 11.186 11.537h-23.075zM174.509 309h11.57v-28.86c0-6.232 4.698-10.643 11.058-10.643 1.949 0 4.378.352 5.369.671v-10.642c-1.054-.192-2.876-.32-4.155-.32-5.625 0-10.323 3.196-12.113 8.885h-.511v-8.182h-11.218V309zm35.684 0h11.569v-49.091h-11.569V309zm5.816-56.058c3.676 0 6.68-2.813 6.68-6.264 0-3.484-3.004-6.297-6.68-6.297-3.707 0-6.711 2.813-6.711 6.297 0 3.451 3.004 6.264 6.711 6.264zm61.5 6.967h-12.305l-11.314 36.467h-.511l-11.282-36.467H229.76L247.243 309h12.784l17.482-49.091zm28.069 50.05c11.442 0 19.304-5.593 21.349-14.127l-10.802-1.214c-1.566 4.155-5.401 6.328-10.387 6.328-7.479 0-12.433-4.922-12.529-13.327h34.198v-3.548c0-17.227-10.355-24.801-22.436-24.801-14.063 0-23.235 10.323-23.235 25.472 0 15.405 9.044 25.217 23.842 25.217zm-12.337-30.139c.352-6.264 4.986-11.537 11.89-11.537 6.647 0 11.122 4.858 11.186 11.537h-23.076zm62.171 30.043c8.437 0 12.241-5.018 14.062-8.597h.704V309h11.377v-65.455h-11.601v24.482h-.48c-1.757-3.548-5.369-8.757-14.03-8.757-11.346 0-20.263 8.885-20.263 25.248 0 16.172 8.661 25.345 20.231 25.345zm3.228-9.492c-7.639 0-11.666-6.712-11.666-15.916 0-9.141 3.964-15.693 11.666-15.693 7.447 0 11.538 6.168 11.538 15.693 0 9.524-4.155 15.916-11.538 15.916zm71.695 9.62c7.702 0 12.304-3.612 14.414-7.735h.383V309h11.122v-32.855c0-12.976-10.578-16.875-19.943-16.875-10.323 0-18.249 4.602-20.806 13.551l10.803 1.534c1.15-3.356 4.41-6.232 10.067-6.232 5.369 0 8.31 2.748 8.31 7.574v.192c0 3.324-3.484 3.484-12.145 4.411-9.524 1.022-18.633 3.867-18.633 14.925 0 9.652 7.063 14.766 16.428 14.766zm3.004-8.502c-4.826 0-8.278-2.205-8.278-6.456 0-4.442 3.867-6.296 9.045-7.031 3.036-.415 9.109-1.182 10.611-2.397v5.785c0 5.465-4.411 10.099-11.378 10.099zm73.349-28.604c-1.598-8.31-8.246-13.615-19.752-13.615-11.825 0-19.879 5.817-19.847 14.893-.032 7.159 4.379 11.89 13.807 13.839l8.373 1.758c4.507.991 6.616 2.812 6.616 5.593 0 3.356-3.643 5.881-9.141 5.881-5.305 0-8.757-2.301-9.747-6.712l-11.282 1.087c1.438 9.012 9.012 14.35 21.061 14.35 12.273 0 20.934-6.36 20.966-15.661-.032-6.999-4.538-11.282-13.806-13.295l-8.374-1.79c-4.986-1.119-6.967-2.844-6.935-5.689-.032-3.324 3.643-5.625 8.469-5.625 5.337 0 8.15 2.909 9.045 6.137l10.547-1.151zm17.786 54.524c9.012 0 14.222-4.634 17.002-12.464l19.72-54.972-12.369-.064-11.346 37.074h-.511l-11.314-37.074h-12.273l17.802 50.114-.991 2.652c-2.141 5.593-5.529 5.977-10.578 4.507l-2.685 9.013c1.566.639 4.378 1.214 7.543 1.214zm56.321-47.173c0-7.095 4.283-11.186 10.388-11.186 5.976 0 9.556 3.931 9.556 10.483V309h11.569v-31.257c.032-11.761-6.679-18.473-16.811-18.473-7.351 0-12.4 3.516-14.638 8.981h-.575v-8.342h-11.058V309h11.569v-28.764zm64.688 29.723c12.337 0 20.199-7.319 21.03-17.738h-11.058c-.991 5.273-4.794 8.31-9.876 8.31-7.223 0-11.889-6.041-11.889-16.076 0-9.908 4.762-15.853 11.889-15.853 5.561 0 8.981 3.58 9.876 8.31h11.058c-.799-10.643-9.109-17.642-21.094-17.642-14.382 0-23.459 10.387-23.459 25.376 0 14.862 8.853 25.313 23.523 25.313zm66.981.032c7.702 0 12.304-3.612 14.414-7.735h.383V309h11.122v-32.855c0-12.976-10.578-16.875-19.943-16.875-10.323 0-18.249 4.602-20.806 13.551l10.803 1.534c1.15-3.356 4.41-6.232 10.067-6.232 5.369 0 8.31 2.748 8.31 7.574v.192c0 3.324-3.484 3.484-12.145 4.411-9.524 1.022-18.633 3.867-18.633 14.925 0 9.652 7.063 14.766 16.428 14.766zm3.004-8.502c-4.826 0-8.278-2.205-8.278-6.456 0-4.442 3.867-6.296 9.045-7.031 3.036-.415 9.109-1.182 10.611-2.397v5.785c0 5.465-4.411 10.099-11.378 10.099zm59.062-41.58h-9.684v-11.761h-11.569v11.761h-6.968v8.949h6.968v27.294c-.064 9.236 6.648 13.775 15.341 13.519 3.292-.096 5.561-.735 6.807-1.15l-1.949-9.045c-.64.16-1.95.447-3.388.447-2.908 0-5.242-1.022-5.242-5.689v-25.376h9.684v-8.949zm30.562 50.05c14.382 0 23.523-10.132 23.523-25.313 0-15.213-9.141-25.376-23.523-25.376s-23.522 10.163-23.522 25.376c0 15.181 9.14 25.313 23.522 25.313zm.064-9.269c-7.958 0-11.857-7.095-11.857-16.076 0-8.98 3.899-16.172 11.857-16.172 7.831 0 11.73 7.192 11.73 16.172 0 8.981-3.899 16.076-11.73 16.076zm33.279 8.31h11.569v-29.851c0-6.04 4.027-10.131 9.013-10.131 4.89 0 8.246 3.292 8.246 8.341V309h11.346v-30.618c0-5.529 3.292-9.364 8.885-9.364 4.666 0 8.373 2.748 8.373 8.821V309h11.602v-32.951c0-10.962-6.328-16.779-15.341-16.779-7.127 0-12.56 3.516-14.734 8.981h-.511c-1.886-5.561-6.648-8.981-13.264-8.981-6.583 0-11.505 3.388-13.551 8.981h-.575v-8.342h-11.058V309zm119.571-36.115c-1.598-8.31-8.246-13.615-19.751-13.615-11.826 0-19.88 5.817-19.848 14.893-.032 7.159 4.379 11.89 13.807 13.839l8.374 1.758c4.506.991 6.615 2.812 6.615 5.593 0 3.356-3.643 5.881-9.14 5.881-5.306 0-8.757-2.301-9.748-6.712l-11.282 1.087c1.438 9.012 9.013 14.35 21.062 14.35 12.273 0 20.934-6.36 20.966-15.661-.032-6.999-4.539-11.282-13.807-13.295l-8.374-1.79c-4.985-1.119-6.967-2.844-6.935-5.689-.032-3.324 3.643-5.625 8.469-5.625 5.338 0 8.15 2.909 9.045 6.137l10.547-1.151z" fill="#CCC"/><path d="M66.158 183.604c8.398 0 13.316-6.854 13.316-18.768 0-11.825-4.989-18.697-13.316-18.697-8.346 0-13.317 6.854-13.335 18.697 0 11.896 4.919 18.75 13.335 18.768zm0-4.741c-4.919 0-7.884-4.936-7.884-14.027.018-9.055 2.983-14.045 7.884-14.045 4.882 0 7.865 4.99 7.865 14.045 0 9.091-2.965 14.027-7.865 14.027zM85.773 183h23.935v-4.705h-16.37v-.267l7.226-7.564c6.658-6.729 8.558-9.943 8.558-14.009 0-5.841-4.759-10.316-11.612-10.316-6.8 0-11.772 4.404-11.772 11.044h5.238c-.018-3.906 2.503-6.463 6.427-6.463 3.693 0 6.499 2.273 6.499 5.895 0 3.214-1.918 5.522-5.824 9.659l-12.305 12.749V183z" fill="#000"/></svg>