<svg width="2480" height="250" fill="none" xmlns="http://www.w3.org/2000/svg"><path fill="#fff" d="M0 0h2480v250H0z"/><path d="M60.76 204h19.762v-39.95h20.135L122.07 204h22.053l-23.597-43.253c12.837-5.167 19.602-16.14 19.602-30.948 0-20.827-13.423-34.89-38.459-34.89h-40.91V204zm19.762-56.357v-36.221h18.11c14.756 0 21.361 6.765 21.361 18.377 0 11.612-6.605 17.844-21.254 17.844H80.522zm111.994 57.955c19.07 0 32.173-9.322 35.582-23.544l-18.004-2.024c-2.61 6.925-9.002 10.547-17.312 10.547-12.464 0-20.721-8.203-20.88-22.213h56.995v-5.912c0-28.711-17.258-41.336-37.393-41.336-23.438 0-38.725 17.206-38.725 42.454 0 25.675 15.074 42.028 39.737 42.028zm-20.561-50.231c.586-10.44 8.31-19.229 19.815-19.229 11.08 0 18.537 8.096 18.644 19.229h-38.459zm108.944 50.231c20.561 0 33.665-12.198 35.05-29.563h-18.43c-1.652 8.789-7.99 13.849-16.46 13.849-12.038 0-19.815-10.067-19.815-26.793 0-16.513 7.937-26.421 19.815-26.421 9.269 0 14.968 5.966 16.46 13.85h18.43c-1.332-17.738-15.181-29.404-35.156-29.404-23.97 0-39.098 17.312-39.098 42.295 0 24.769 14.755 42.187 39.204 42.187zM331.783 204h19.282v-81.818h-19.282V204zm9.694-93.43c6.126 0 11.133-4.688 11.133-10.441 0-5.806-5.007-10.493-11.133-10.493-6.179 0-11.186 4.687-11.186 10.493 0 5.753 5.007 10.441 11.186 10.441zm29.417 124.112h19.283v-43.573h.799c3.036 5.966 9.375 14.329 23.437 14.329 19.283 0 33.718-15.287 33.718-42.241 0-27.272-14.861-42.081-33.771-42.081-14.435 0-20.455 8.683-23.384 14.596h-1.119v-13.53h-18.963v112.5zm18.91-71.591c0-15.874 6.818-26.154 19.229-26.154 12.838 0 19.443 10.92 19.443 26.154 0 15.341-6.712 26.527-19.443 26.527-12.304 0-19.229-10.654-19.229-26.527zm111.062 42.507c19.069 0 32.173-9.322 35.582-23.544l-18.004-2.024c-2.61 6.925-9.002 10.547-17.312 10.547-12.465 0-20.721-8.203-20.881-22.213h56.996v-5.912c0-28.711-17.259-41.336-37.393-41.336-23.438 0-38.726 17.206-38.726 42.454 0 25.675 15.075 42.028 39.738 42.028zm-20.561-50.231c.585-10.44 8.309-19.229 19.815-19.229 11.079 0 18.537 8.096 18.643 19.229h-38.458zm137.921-11.559c-2.663-13.849-13.743-22.692-32.919-22.692-19.709 0-33.132 9.695-33.079 24.823-.053 11.932 7.298 19.815 23.012 23.065l13.956 2.929c7.51 1.652 11.026 4.688 11.026 9.322 0 5.593-6.072 9.801-15.234 9.801-8.843 0-14.596-3.835-16.247-11.186l-18.803 1.811c2.397 15.021 15.021 23.917 35.103 23.917 20.454 0 34.89-10.6 34.943-26.101-.053-11.665-7.564-18.803-23.011-22.159l-13.956-2.983c-8.31-1.864-11.613-4.741-11.559-9.481-.054-5.54 6.072-9.375 14.116-9.375 8.895 0 13.583 4.847 15.074 10.227l17.578-1.918z" fill="#000"/></svg>